<?xml version="1.0" encoding="utf-8"?>
<!-- Generator: Adobe Illustrator 19.1.0, SVG Export Plug-In . SVG Version: 6.00 Build 0)  -->
<svg version="1.1" id="Layer_1" xmlns="http://www.w3.org/2000/svg" xmlns:xlink="http://www.w3.org/1999/xlink" x="0px" y="0px"
	 viewBox="-349 -10.8 300 24.2" style="enable-background:new -349 -10.8 300 24.2;" xml:space="preserve">
<style type="text/css">
	.st0{fill:#FFFFFF;}
</style>
<g>
	<path class="st0" d="M-348.3-3.6h-0.5c-0.1,0-0.2-0.1-0.2-0.2v-6.8c0-0.1,0.1-0.2,0.2-0.2h0.5c0.1,0,0.2,0.1,0.2,0.2v6.8
		C-348.1-3.7-348.2-3.6-348.3-3.6z"/>
	<path class="st0" d="M-341.9-3.6h-0.6c-0.2,0-0.3-0.1-0.3-0.2l-3-5.7c0,0,0-0.1-0.1-0.1c-0.1,0,0,0,0,0.1v5.6
		c0,0.1-0.1,0.2-0.2,0.2h-0.5c-0.1,0-0.2,0-0.2-0.1v-6.8c0-0.2,0.1-0.3,0.3-0.3h0.5c0.3,0,0.3,0.1,0.4,0.2l3,5.6V-5c0,0,0,0,0-0.1
		v-5.6c0-0.1,0.1-0.2,0.2-0.2h0.5c0.1,0,0.2,0.1,0.2,0.2v6.7C-341.6-3.8-341.8-3.6-341.9-3.6z"/>
	<path class="st0" d="M-335.8-10h-1.9v6.2c0,0.1-0.1,0.2-0.2,0.2h-0.5c-0.1,0-0.2-0.1-0.2-0.2V-10h-1.9c-0.1,0-0.2-0.1-0.2-0.2v-0.4
		c0-0.1,0.1-0.2,0.2-0.2h4.6c0.1,0,0.2,0.1,0.2,0.2v0.4C-335.6-10.1-335.7-10-335.8-10z"/>
	<path class="st0" d="M-330.8-3.6c-0.4,0.1-1.3,0.1-1.9,0.1c-1.3,0-2-0.5-2-1.8V-9c0-1.3,0.7-1.8,2-1.8c0.5,0,1.5,0,1.9,0.1
		c0.1,0,0.1,0.1,0.1,0.1v0.5c0,0.1-0.1,0.1-0.1,0.1h-1.9c-1,0-1.2,0.3-1.2,1v1.3h3c0.1,0,0.2,0.1,0.2,0.2v0.4c0,0.1-0.1,0.2-0.2,0.2
		h-3v1.6c0,0.7,0.2,1,1.2,1h1.9c0.1,0,0.1,0.1,0.1,0.1v0.5C-330.7-3.7-330.7-3.6-330.8-3.6z"/>
	<path class="st0" d="M-324.8-3.6h-0.6c-0.1,0-0.2,0-0.3-0.1l-1.7-2.9c-0.1,0-0.1,0-0.1,0s-0.1,0-0.2,0c-0.3,0-0.5,0-1-0.1v2.8
		c0,0.1-0.1,0.2-0.2,0.2h-0.5c-0.1,0-0.2-0.1-0.2-0.2v-6.7c0-0.1,0.1-0.2,0.2-0.2c0.4-0.1,1.2-0.1,1.7-0.1c1.5,0,2.7,0.5,2.7,2.1
		v0.1c0,1.1-0.7,1.7-1.5,1.9l1.8,2.9c0,0.1,0.1,0.1,0.1,0.1C-324.7-3.7-324.7-3.6-324.8-3.6z M-325.8-8.8c0-0.9-0.6-1.3-1.8-1.3
		c-0.3,0-0.8,0-1,0.1v2.6c0.4,0,0.8,0,1,0c1.2,0,1.8-0.3,1.8-1.3V-8.8z"/>
	<path class="st0" d="M-318.5-3.6h-0.5c-0.1,0-0.2-0.1-0.2-0.2l-0.6-2.2h-2.5l-0.6,2.2c0,0.1-0.1,0.2-0.2,0.2h-0.5
		c-0.1,0-0.2-0.1-0.2-0.2v-0.1l1.8-6.3c0.2-0.6,0.6-0.7,1-0.7c0.3,0,0.8,0.1,1,0.7l1.8,6.3v0.1C-318.4-3.7-318.4-3.6-318.5-3.6z
		 M-320.9-9.9c-0.1-0.1-0.1-0.2-0.2-0.2c-0.1,0-0.2,0.1-0.2,0.2l-0.8,3.2h2.1L-320.9-9.9z"/>
	<path class="st0" d="M-313.6-3.7c-0.4,0.1-0.8,0.1-1.6,0.1c-1.2,0.1-2.5-0.6-2.5-2.9v-1.3c0-2.4,1.4-3,2.5-3c0.6,0,1.2,0.1,1.6,0.2
		c0.1,0,0.2,0.1,0.2,0.1v0.5c0,0.1,0,0.1-0.1,0.1c0,0,0,0-0.1,0c-0.3-0.1-1-0.1-1.6-0.1c-0.9,0-1.6,0.5-1.6,2.2v1.3
		c0,1.6,0.7,2.2,1.6,2.2c0.5,0,1.3-0.1,1.6-0.1h0.1c0.1,0,0.2,0.1,0.2,0.2v0.4C-313.4-3.8-313.5-3.7-313.6-3.7z"/>
	<path class="st0" d="M-307.8-10h-1.9v6.2c0,0.1-0.1,0.2-0.2,0.2h-0.5c-0.1,0-0.2-0.1-0.2-0.2V-10h-1.9c-0.1,0-0.2-0.1-0.2-0.2v-0.4
		c0-0.1,0.1-0.2,0.2-0.2h4.6c0.1,0,0.2,0.1,0.2,0.2v0.4C-307.5-10.1-307.7-10-307.8-10z"/>
	<path class="st0" d="M-305.8-3.6h-0.5c-0.1,0-0.2-0.1-0.2-0.2v-6.8c0-0.1,0.1-0.2,0.2-0.2h0.5c0.1,0,0.2,0.1,0.2,0.2v6.8
		C-305.6-3.7-305.7-3.6-305.8-3.6z"/>
	<path class="st0" d="M-299-10.6l-1.8,6.3c-0.2,0.6-0.6,0.7-1,0.7c-0.3,0-0.8-0.1-1-0.7l-1.8-6.3v-0.1c0-0.1,0.1-0.2,0.2-0.2h0.5
		c0.1,0,0.2,0.1,0.2,0.2l1.6,6.1c0.1,0.1,0.1,0.2,0.2,0.2c0.1,0,0.2-0.1,0.2-0.2l1.7-6.1c0-0.1,0.1-0.2,0.2-0.2h0.5
		C-299.1-10.8-299-10.7-299-10.6C-299-10.6-299-10.6-299-10.6z"/>
	<path class="st0" d="M-294.2-3.6c-0.4,0.1-1.3,0.1-1.9,0.1c-1.3,0-2-0.5-2-1.8V-9c0-1.3,0.7-1.8,2-1.8c0.5,0,1.5,0,1.9,0.1
		c0.1,0,0.1,0.1,0.1,0.1v0.5c0,0.1-0.1,0.1-0.1,0.1h-1.9c-1,0-1.2,0.3-1.2,1v1.3h3c0.1,0,0.2,0.1,0.2,0.2v0.4c0,0.1-0.1,0.2-0.2,0.2
		h-3v1.6c0,0.7,0.2,1,1.2,1h1.9c0.1,0,0.1,0.1,0.1,0.1v0.5C-294.1-3.7-294.1-3.6-294.2-3.6z"/>
</g>
<g>
	<path class="st0" d="M-342.5,13.1c-0.2,0.1-1.2,0.2-2.3,0.2c-1.8,0-4.2-0.9-4.2-4.5V6.7c0-3.7,2.4-4.5,4.2-4.5
		c1.2,0,2.1,0.2,2.3,0.2c0.2,0.1,0.3,0.1,0.3,0.3v1c0,0.2-0.1,0.3-0.3,0.3c0,0,0,0-0.1,0c-0.5-0.1-1.5-0.1-2.3-0.1
		c-1.3,0-2.1,0.7-2.1,2.7v2.1c0,2,0.9,2.7,2.1,2.7c0.8,0,1.8-0.1,2.3-0.1h0.1c0.2,0,0.3,0.1,0.3,0.3v1
		C-342.2,12.9-342.4,13-342.5,13.1z"/>
	<path class="st0" d="M-331.7,13.2h-1.5c-0.1,0-0.3-0.1-0.3-0.3l-0.7-2.8h-3.4l-0.7,2.8c-0.1,0.1-0.2,0.3-0.3,0.3h-1.5
		c-0.2,0-0.3-0.1-0.3-0.3v-0.1l2.4-9.2c0.3-1.4,1.4-1.5,2-1.5c0.7,0,1.7,0.1,2,1.5l2.4,9.2c0,0.1,0,0.1,0,0.1
		C-331.4,13.1-331.6,13.2-331.7,13.2z M-335.7,4.1c-0.1-0.2-0.1-0.2-0.2-0.2c-0.1,0-0.2,0.1-0.2,0.2l-1,4.4h2.6L-335.7,4.1z"/>
	<path class="st0" d="M-321.7,13.2h-1.8c-0.2,0-0.2-0.2-0.3-0.3l-2.1-4h-0.2c-0.4,0-1-0.1-1.3-0.1v4c0,0.2-0.1,0.3-0.3,0.3h-1.5
		c-0.2,0-0.3-0.1-0.3-0.3V2.8c0-0.3,0.2-0.4,0.5-0.4c0.8-0.1,1.8-0.2,2.9-0.2c2.3,0,4.2,0.8,4.2,3.3v0.1c0,1.5-0.8,2.5-2,3l2.3,4.2
		c0.1,0.1,0.1,0.1,0.1,0.1C-321.5,13.1-321.5,13.2-321.7,13.2z M-323.9,5.5c0-1.1-0.7-1.6-2.2-1.6c-0.3,0-1,0.1-1.3,0.1v3.3
		c0.2,0,1,0.1,1.3,0.1c1.5,0,2.2-0.4,2.2-1.7C-323.9,5.6-323.9,5.5-323.9,5.5z"/>
	<path class="st0" d="M-316.1,13.3c-1,0-2.5-0.1-2.9-0.2c-0.2-0.1-0.4-0.2-0.4-0.5V2.8c0-0.3,0.1-0.4,0.4-0.4
		c0.4-0.1,1.9-0.2,2.9-0.2c3,0,4.6,1.6,4.6,4.5v2.1C-311.4,11.7-313.1,13.3-316.1,13.3z M-313.5,6.6c0-2.2-1.1-2.8-2.6-2.8
		c-0.5,0-0.9,0.1-1.3,0.1v7.6c0.3,0,0.7,0.1,1.3,0.1c1.5,0,2.6-0.5,2.6-2.8V6.6z"/>
	<path class="st0" d="M-307.3,13.2h-1.5c-0.2,0-0.3-0.1-0.3-0.3V2.6c0-0.2,0.1-0.3,0.3-0.3h1.5c0.2,0,0.3,0.1,0.3,0.3v10.3
		C-307,13-307.2,13.2-307.3,13.2z"/>
	<path class="st0" d="M-300.5,13.3c-2.4,0-4.2-1.4-4.2-4.6v-2c0-3.2,1.8-4.6,4.2-4.6c2.4,0,4.2,1.4,4.2,4.6v2
		C-296.3,11.9-298,13.3-300.5,13.3z M-298.3,6.7c0-1.9-0.7-2.8-2.1-2.8c-1.4,0-2.1,0.9-2.1,2.8v2c0,1.9,0.7,2.8,2.1,2.8
		c1.4,0,2.1-0.9,2.1-2.8V6.7z"/>
	<path class="st0" d="M-285.9,2.6l-2.4,9.2c-0.3,1.4-1.4,1.5-2,1.5s-1.7-0.1-2-1.5l-2.4-9.2c0-0.1,0-0.1,0-0.1
		c0-0.2,0.1-0.3,0.3-0.3h1.5c0.1,0,0.3,0.1,0.3,0.3l2.1,8.8c0.1,0.2,0.1,0.2,0.2,0.2s0.2-0.1,0.2-0.2l2.1-8.8
		c0.1-0.1,0.2-0.3,0.3-0.3h1.5C-286,2.2-285.9,2.3-285.9,2.6C-285.8,2.6-285.9,2.6-285.9,2.6z"/>
	<path class="st0" d="M-276.7,13.2h-1.5c-0.1,0-0.3-0.1-0.3-0.3l-0.7-2.8h-3.4l-0.7,2.8c-0.1,0.1-0.2,0.3-0.3,0.3h-1.5
		c-0.2,0-0.3-0.1-0.3-0.3v-0.1l2.4-9.2c0.3-1.4,1.4-1.5,2-1.5c0.6,0,1.7,0.1,2,1.5l2.4,9.2c0,0.1,0,0.1,0,0.1
		C-276.4,13.1-276.6,13.2-276.7,13.2z M-280.7,4.1c-0.1-0.2-0.1-0.2-0.2-0.2s-0.2,0.1-0.2,0.2l-1,4.4h2.6L-280.7,4.1z"/>
	<path class="st0" d="M-271.6,13.3c-1.1,0-1.9-0.1-2.6-0.3c-0.2-0.1-0.3-0.1-0.3-0.3v-1c0-0.2,0.1-0.3,0.3-0.3c0,0,0,0,0.1,0
		c0.6,0.1,2.1,0.2,2.6,0.2c1.3,0,1.7-0.5,1.7-1.3c0-0.5-0.3-0.9-1.3-1.4l-1.9-1.2c-1.4-0.8-1.8-1.6-1.8-2.7c0-1.6,0.9-2.8,3.7-2.8
		c1,0,2.3,0.2,2.8,0.3c0.2,0.1,0.3,0.1,0.3,0.3v1.1c0,0.2-0.1,0.3-0.3,0.3c0,0,0,0-0.1,0c-1-0.1-1.9-0.2-2.9-0.2
		c-1.1,0-1.5,0.4-1.5,1c0,0.5,0.3,0.8,1.2,1.3l1.8,1c1.6,0.9,2,1.9,2,3C-267.7,11.7-268.7,13.3-271.6,13.3z"/>
	<path class="st0" d="M-259.2,13.1c-0.2,0.1-1.2,0.2-2.3,0.2c-1.8,0-4.2-0.9-4.2-4.5V6.7c0-3.7,2.4-4.5,4.2-4.5
		c1.2,0,2.1,0.2,2.3,0.2c0.2,0.1,0.3,0.1,0.3,0.3v1c0,0.2-0.1,0.3-0.3,0.3c0,0,0,0-0.1,0c-0.5-0.1-1.5-0.1-2.3-0.1
		c-1.3,0-2.1,0.7-2.1,2.7v2.1c0,2,0.9,2.7,2.1,2.7c0.8,0,1.8-0.1,2.3-0.1h0.1c0.2,0,0.3,0.1,0.3,0.3v1
		C-258.9,12.9-259,13-259.2,13.1z"/>
	<path class="st0" d="M-252.7,13.3c-2.4,0-4.1-1-4.1-4.2V2.6c0-0.2,0.1-0.3,0.3-0.3h1.5c0.2,0,0.3,0.1,0.3,0.3v6.6
		c0,1.7,0.4,2.5,2,2.5c1.6,0,2-0.8,2-2.5V2.6c0-0.2,0.1-0.3,0.3-0.3h1.5c0.2,0,0.3,0.1,0.3,0.3v6.6
		C-248.6,12.3-250.3,13.3-252.7,13.3z"/>
	<path class="st0" d="M-240.2,13.1c-0.4,0.1-1.7,0.2-2.5,0.2c-1.9,0-3.4-0.5-3.4-3V2.6c0-0.2,0.1-0.3,0.3-0.3h1.5
		c0.2,0,0.3,0.1,0.3,0.3v7.7c0,1,0.3,1.3,1.2,1.3h2.7c0.2,0,0.3,0.1,0.3,0.3v0.9C-239.9,13-240,13-240.2,13.1z"/>
	<path class="st0" d="M-229.6,13.2h-1.5c-0.1,0-0.3-0.1-0.3-0.3l-0.7-2.8h-3.4l-0.7,2.8c-0.1,0.1-0.2,0.3-0.3,0.3h-1.5
		c-0.2,0-0.3-0.1-0.3-0.3v-0.1l2.4-9.2c0.3-1.4,1.4-1.5,2-1.5c0.6,0,1.7,0.1,2,1.5l2.4,9.2c0,0.1,0,0.1,0,0.1
		C-229.3,13.1-229.5,13.2-229.6,13.2z M-233.6,4.1c-0.1-0.2-0.1-0.2-0.2-0.2c-0.1,0-0.2,0.1-0.2,0.2l-1,4.4h2.6L-233.6,4.1z"/>
	<path class="st0" d="M-219.5,13.2h-1.8c-0.2,0-0.2-0.2-0.3-0.3l-2.1-4h-0.2c-0.4,0-1-0.1-1.3-0.1v4c0,0.2-0.1,0.3-0.3,0.3h-1.5
		c-0.2,0-0.3-0.1-0.3-0.3V2.8c0-0.3,0.2-0.4,0.5-0.4c0.8-0.1,1.8-0.2,2.9-0.2c2.3,0,4.2,0.8,4.2,3.3v0.1c0,1.5-0.8,2.5-2,3l2.3,4.3
		c0.1,0.1,0.1,0.1,0.1,0.1C-219.4,13.1-219.4,13.2-219.5,13.2z M-221.7,5.5c0-1.1-0.7-1.6-2.2-1.6c-0.3,0-1,0.1-1.3,0.1v3.3
		c0.2,0,1,0.1,1.3,0.1c1.5,0,2.2-0.4,2.2-1.7V5.5z"/>
</g>
<g>
	<path class="st0" d="M-208.4,13.2h-0.5c-0.1,0-0.2-0.1-0.2-0.2l-0.6-2.2h-2.5l-0.6,2.2c0,0.1-0.1,0.2-0.2,0.2h-0.5
		c-0.1,0-0.2-0.1-0.2-0.2V13l1.8-6.3c0.2-0.6,0.6-0.7,1-0.7c0.3,0,0.8,0.1,1,0.7l1.8,6.3v0.1C-208.2,13.2-208.2,13.2-208.4,13.2z
		 M-210.8,7c-0.1-0.1-0.1-0.2-0.2-0.2c-0.1,0-0.2,0.1-0.2,0.2l-0.9,3.2h2.1L-210.8,7z"/>
	<path class="st0" d="M-202.4,13.2h-0.6c-0.2,0-0.3-0.1-0.3-0.2l-3-5.7c0,0,0-0.1-0.1-0.1c0,0,0,0,0,0.1V13c0,0.1-0.1,0.2-0.2,0.2
		h-0.5c-0.1,0-0.2,0-0.2-0.1V6.4c0-0.2,0.1-0.3,0.3-0.3h0.5c0.3,0,0.3,0.1,0.4,0.2l3,5.6V12c0,0,0,0,0-0.1V6.2
		c0-0.1,0.1-0.2,0.2-0.2h0.5c0.1,0,0.2,0.1,0.2,0.2v6.7C-202.1,13.1-202.3,13.2-202.4,13.2z"/>
	<path class="st0" d="M-198.9,13.3c-0.7,0-1.5-0.1-1.8-0.1c-0.1,0-0.2-0.1-0.2-0.2V6.4c0-0.1,0.1-0.2,0.2-0.2c0.3-0.1,1-0.1,1.8-0.1
		c1.8,0,2.9,0.9,2.9,3v1.3C-195.9,12.3-197.1,13.3-198.9,13.3z M-196.8,9c0-1.8-0.9-2.3-2-2.3c-0.4,0-0.8,0-1,0.1v5.7
		c0.3,0,0.6,0,1,0c1.2,0,2-0.5,2-2.3C-196.8,10.3-196.8,9-196.8,9z"/>
</g>
<g>
	<path class="st0" d="M-185.2,4h-2.6v9c0,0.2-0.1,0.3-0.3,0.3h-1.5c-0.2,0-0.3-0.1-0.3-0.3V4h-2.6c-0.2,0-0.3-0.1-0.3-0.3V2.6
		c0-0.2,0.1-0.3,0.3-0.3h7.2c0.2,0,0.3,0.1,0.3,0.3v1.2C-184.8,3.9-185,4-185.2,4z"/>
	<path class="st0" d="M-174.9,13.2h-1.5c-0.2,0-0.3-0.1-0.3-0.3V8.5h-4.2V13c0,0.2-0.1,0.3-0.3,0.3h-1.5c-0.2,0-0.3-0.1-0.3-0.3V2.6
		c0-0.2,0.1-0.3,0.3-0.3h1.5c0.2,0,0.3,0.1,0.3,0.3v4.1h4.2V2.6c0-0.2,0.1-0.3,0.3-0.3h1.5c0.2,0,0.3,0.1,0.3,0.3V13
		C-174.5,13.1-174.7,13.2-174.9,13.2z"/>
	<path class="st0" d="M-168,13.3c-2.4,0-4.2-1.4-4.2-4.6v-2c0-3.2,1.8-4.6,4.2-4.6c2.4,0,4.2,1.4,4.2,4.6v2
		C-163.8,12-165.5,13.3-168,13.3z M-165.9,6.8c0-1.9-0.7-2.8-2.1-2.8s-2.1,0.9-2.1,2.8v2c0,1.9,0.7,2.8,2.1,2.8s2.1-0.9,2.1-2.8V6.8
		z"/>
	<path class="st0" d="M-153.7,13.2h-1.8c-0.2,0-0.2-0.2-0.3-0.3l-2.1-4h-0.2c-0.4,0-1-0.1-1.3-0.1v4c0,0.2-0.1,0.3-0.3,0.3h-1.5
		c-0.2,0-0.3-0.1-0.3-0.3V2.8c0-0.3,0.2-0.4,0.5-0.4c0.8-0.1,1.8-0.2,2.9-0.2c2.3,0,4.2,0.8,4.2,3.3v0.1c0,1.5-0.8,2.5-2,3l2.3,4.3
		c0.1,0.1,0.1,0.1,0.1,0.1C-153.5,13.2-153.6,13.2-153.7,13.2z M-155.9,5.5c0-1.1-0.7-1.6-2.2-1.6c-0.3,0-1,0.1-1.3,0.1v3.3
		c0.2,0,1,0.1,1.3,0.1c1.5,0,2.2-0.4,2.2-1.7V5.5z"/>
	<path class="st0" d="M-143,13.2h-1.5c-0.1,0-0.3-0.1-0.3-0.3l-0.7-2.8h-3.5l-0.7,2.8c-0.1,0.1-0.2,0.3-0.3,0.3h-1.5
		c-0.2,0-0.3-0.1-0.3-0.3v-0.1l2.4-9.2c0.3-1.4,1.4-1.5,2-1.5s1.7,0.1,2,1.5l2.4,9.2c0,0.1,0,0.1,0,0.1
		C-142.7,13.1-142.9,13.2-143,13.2z M-147,4.1c-0.1-0.2-0.1-0.2-0.2-0.2c-0.2,0-0.2,0.1-0.2,0.2l-1,4.4h2.6L-147,4.1z"/>
	<path class="st0" d="M-134.8,13.1c-0.2,0.1-1.2,0.2-2.3,0.2c-1.8,0-4.2-0.9-4.2-4.5V6.7c0-3.7,2.4-4.5,4.2-4.5
		c1.2,0,2.1,0.2,2.3,0.2c0.2,0.1,0.3,0.1,0.3,0.3v1c0,0.2-0.1,0.3-0.3,0.3c0,0,0,0-0.1,0c-0.5-0.1-1.5-0.1-2.3-0.1
		c-1.3,0-2.1,0.7-2.1,2.7v2.1c0,2,0.9,2.7,2.1,2.7c0.8,0,1.8-0.1,2.3-0.1h0.1c0.2,0,0.3,0.1,0.3,0.3v1
		C-134.5,13-134.6,13.1-134.8,13.1z"/>
	<path class="st0" d="M-130.5,13.2h-1.5c-0.2,0-0.3-0.1-0.3-0.3V2.6c0-0.2,0.1-0.3,0.3-0.3h1.5c0.2,0,0.3,0.1,0.3,0.3V13
		C-130.3,13.1-130.4,13.2-130.5,13.2z"/>
	<path class="st0" d="M-121.4,13.1c-0.2,0.1-1.2,0.2-2.3,0.2c-1.8,0-4.2-0.9-4.2-4.5V6.7c0-3.7,2.4-4.5,4.2-4.5
		c1.2,0,2.1,0.2,2.3,0.2c0.2,0.1,0.3,0.1,0.3,0.3v1c0,0.2-0.1,0.3-0.3,0.3c0,0,0,0-0.1,0c-0.5-0.1-1.5-0.1-2.3-0.1
		c-1.3,0-2.1,0.7-2.1,2.7v2.1c0,2,0.9,2.7,2.1,2.7c0.8,0,1.8-0.1,2.3-0.1h0.1c0.2,0,0.3,0.1,0.3,0.3v1
		C-121,13-121.2,13.1-121.4,13.1z"/>
</g>
<g>
	<path class="st0" d="M-111.5,13.3c-1.1,0-1.9-0.1-2.6-0.3c-0.2-0.1-0.3-0.1-0.3-0.3v-1c0-0.2,0.1-0.3,0.3-0.3c0,0,0,0,0.1,0
		c0.6,0.1,2.1,0.2,2.6,0.2c1.3,0,1.7-0.5,1.7-1.3c0-0.5-0.3-0.9-1.3-1.4l-1.9-1.2c-1.4-0.8-1.8-1.6-1.8-2.7c0-1.6,0.9-2.8,3.7-2.8
		c1,0,2.3,0.2,2.8,0.3c0.2,0.1,0.3,0.1,0.3,0.3v1.1c0,0.2-0.1,0.3-0.3,0.3c0,0,0,0-0.1,0c-1-0.1-1.9-0.2-2.9-0.2
		c-1.1,0-1.5,0.4-1.5,1c0,0.5,0.3,0.8,1.2,1.3l1.8,1c1.6,0.9,2,1.9,2,3C-107.6,11.8-108.6,13.3-111.5,13.3z"/>
	<path class="st0" d="M-101.5,13.3c-2.4,0-4.1-1-4.1-4.2V2.6c0-0.2,0.1-0.3,0.3-0.3h1.5c0.2,0,0.3,0.1,0.3,0.3v6.6
		c0,1.7,0.4,2.5,2,2.5s2-0.8,2-2.5V2.6c0-0.2,0.1-0.3,0.3-0.3h1.5c0.2,0,0.3,0.1,0.3,0.3v6.6C-97.4,12.4-99.1,13.3-101.5,13.3z"/>
	<path class="st0" d="M-87.1,13.2h-1.8c-0.2,0-0.2-0.2-0.3-0.3l-2.1-4h-0.2c-0.4,0-1-0.1-1.3-0.1v4c0,0.2-0.1,0.3-0.3,0.3h-1.4
		c-0.2,0-0.3-0.1-0.3-0.3V2.8c0-0.3,0.2-0.4,0.5-0.4c0.8-0.1,1.8-0.2,2.9-0.2c2.3,0,4.2,0.8,4.2,3.3v0.1c0,1.5-0.8,2.5-2,3l2.3,4.3
		c0.1,0.1,0.1,0.1,0.1,0.1C-86.9,13.2-87,13.2-87.1,13.2z M-89.3,5.5c0-1.1-0.7-1.6-2.2-1.6c-0.3,0-1,0.1-1.3,0.1v3.3
		c0.2,0,1,0.1,1.3,0.1c1.5,0,2.2-0.4,2.2-1.7V5.5z"/>
	<path class="st0" d="M-77.9,13.1c-0.7,0.2-1.7,0.3-3.2,0.3c-1.6,0-4-1-4-4.5V6.8c0-3.5,2.3-4.6,4-4.6c1.4,0,2.7,0.2,3.2,0.3
		c0.2,0.1,0.3,0.1,0.3,0.3v1c0,0.2-0.1,0.3-0.3,0.3h-0.1C-78.6,4.1-79.6,4-81.1,4c-1,0-1.9,0.7-1.9,2.8V9c0,2.1,1,2.7,1.9,2.7
		c0.5,0,1,0,1.5-0.1V7.9c0-0.2,0.1-0.3,0.3-0.3h1.5c0.2,0,0.3,0.1,0.3,0.3v4.9C-77.7,13-77.8,13.1-77.9,13.1z"/>
	<path class="st0" d="M-69,13.2c-0.5,0.1-1,0.2-2.8,0.2c-1.9,0-3.4-0.5-3.4-3V5.2c0-2.5,1.5-3,3.4-3c1.8,0,2.3,0.1,2.8,0.2
		c0.2,0.1,0.3,0.1,0.3,0.3v0.9c0,0.2-0.1,0.3-0.3,0.3h-3c-0.9,0-1.2,0.3-1.2,1.3v1.6h4c0.2,0,0.3,0.1,0.3,0.3v1
		c0,0.2-0.1,0.3-0.3,0.3h-4v1.9c0,1,0.3,1.3,1.2,1.3h3c0.2,0,0.3,0.1,0.3,0.3v0.9C-68.8,13.1-68.8,13.1-69,13.2z"/>
	<path class="st0" d="M-58.7,13.2h-1.8c-0.2,0-0.2-0.2-0.3-0.3l-2.1-4h-0.2c-0.4,0-1-0.1-1.3-0.1v4c0,0.2-0.1,0.3-0.3,0.3h-1.5
		c-0.2,0-0.3-0.1-0.3-0.3V2.8c0-0.3,0.2-0.4,0.5-0.4c0.8-0.1,1.8-0.2,2.9-0.2c2.3,0,4.2,0.8,4.2,3.3v0.1c0,1.5-0.8,2.5-2,3l2.3,4.3
		c0.1,0.1,0.1,0.1,0.1,0.1C-58.5,13.2-58.6,13.2-58.7,13.2z M-60.9,5.5c0-1.1-0.7-1.6-2.2-1.6c-0.3,0-1,0.1-1.3,0.1v3.3
		c0.2,0,1,0.1,1.3,0.1c1.5,0,2.2-0.4,2.2-1.7V5.5z"/>
	<path class="st0" d="M-49.1,2.6l-2.3,5.1c-0.3,0.7-0.5,0.9-0.9,1.1V13c0,0.2-0.1,0.3-0.3,0.3h-1.5c-0.2,0-0.3-0.1-0.3-0.3V8.8
		c-0.3-0.1-0.6-0.4-0.9-1.1l-2.2-5.1c0-0.1-0.1-0.1-0.1-0.1c0-0.1,0.1-0.2,0.2-0.2h1.6c0.1,0,0.2,0.1,0.3,0.2l1.8,4.4
		c0.1,0.3,0.2,0.3,0.3,0.3c0.1,0,0.2-0.1,0.3-0.3l1.8-4.4c0.1-0.1,0.2-0.2,0.3-0.2h1.6c0.2,0,0.3,0.1,0.3,0.2
		C-49,2.6-49,2.6-49.1,2.6z"/>
</g>
</svg>
