<?xml version="1.0" encoding="utf-8"?>
<!-- Generator: Adobe Illustrator 19.2.1, SVG Export Plug-In . SVG Version: 6.00 Build 0)  -->
<svg version="1.1" id="Layer_1" xmlns="http://www.w3.org/2000/svg" xmlns:xlink="http://www.w3.org/1999/xlink" x="0px" y="0px"
	 viewBox="0 0 300 22" style="enable-background:new 0 0 300 22;" xml:space="preserve">
<style type="text/css">
	.st0{fill:#77B0DF;}
</style>
<g>
	<path class="st0" d="M7.4,2C5.8,2.2,5.6,2.4,5.6,4.3V12c0,2.7-0.2,4.9-2.4,6.7c-0.9,0.8-1.9,1.2-2.8,1.4L0,19.3
		c1.3-0.5,2-1.3,2.2-2.8c0.2-1.3,0.3-2.8,0.3-4.5V4.3c0-2-0.2-2.1-2-2.3V1.2h7V2z"/>
	<path class="st0" d="M18.8,11c0,3.7-2.7,5.6-5.4,5.6C9.7,16.6,8,14,8,11.4c0-3.7,3-5.6,5.5-5.6C16.7,5.8,18.8,8.2,18.8,11z
		 M11.3,10.6c0,2.9,0.9,5.1,2.4,5.1c0.9,0,1.8-0.6,1.8-4c0-3.2-0.8-5-2.3-5C12.2,6.7,11.3,7.9,11.3,10.6z"/>
	<path class="st0" d="M31.7,15.8c-1.4,0.2-2.8,0.5-4.3,0.8l-0.2-0.2v-1.4c-0.4,0.3-0.7,0.6-1.2,0.9c-0.7,0.4-1.3,0.7-2,0.7
		c-2,0-3-1.3-3-3.3V8.5c0-1.1-0.1-1.2-1.3-1.5V6.3c1.4-0.1,2.8-0.2,4.3-0.4c0,1-0.1,2.2-0.1,3.5v3.4c0,1.5,0.8,2,1.6,2
		c0.6,0,1.1-0.1,1.7-0.7V8.5c0-1.2-0.1-1.3-1.5-1.5V6.3c1.4-0.1,2.9-0.2,4.4-0.4v7.6c0,1.2,0.1,1.4,1,1.5l0.5,0V15.8z"/>
	<path class="st0" d="M37.1,8.2c0.8-1.4,1.7-2.4,2.6-2.4c0.9,0,1.6,0.7,1.6,1.4c0,0.8-0.5,1.5-1.1,1.7c-0.3,0.1-0.6,0-0.7-0.1
		c-0.4-0.3-0.7-0.5-1.1-0.5c-0.4,0-0.9,0.3-1.3,1.2v4.3c0,1.4,0.1,1.5,1.9,1.7v0.7h-6.4v-0.7c1.3-0.1,1.5-0.3,1.5-1.7V8.8
		c0-1.2-0.2-1.3-1.3-1.5V6.6c1.4-0.2,2.8-0.4,4.2-0.9L37.1,8.2L37.1,8.2z"/>
	<path class="st0" d="M48.5,16.3v-0.7c1-0.2,1.1-0.2,1.1-1.9v-4c0-1.7-0.8-2.2-1.6-2.2c-0.6,0-1.1,0.3-1.7,0.7v5.6
		c0,1.4,0.1,1.5,1.1,1.7v0.7h-5.6v-0.7c1.4-0.2,1.6-0.2,1.6-1.8V9c0-1.4-0.1-1.5-1.3-1.7V6.6c1.3-0.2,2.8-0.5,4.2-0.9v1.7
		c0.5-0.3,0.9-0.7,1.4-1c0.7-0.4,1.1-0.7,1.8-0.7c1.9,0,3,1.4,3,3.7v4.4c0,1.5,0.1,1.5,1.3,1.7v0.7H48.5z"/>
	<path class="st0" d="M62.4,16.6c-0.6,0-1.1-0.2-1.4-0.5c-0.3-0.3-0.5-0.6-0.6-0.9c-0.9,0.6-2,1.3-2.4,1.3c-2,0-3.1-1.5-3.1-3
		c0-1.2,0.6-1.8,1.8-2.2c1.4-0.5,3.2-1.1,3.7-1.5V9.2c0-1.5-0.6-2.3-1.4-2.3c-0.3,0-0.6,0.1-0.8,0.4c-0.3,0.3-0.5,0.9-0.7,1.6
		c-0.2,0.6-0.5,0.8-1,0.8c-0.6,0-1.4-0.6-1.4-1.2c0-0.4,0.3-0.7,0.8-1.1c0.9-0.6,2.5-1.4,3.9-1.7c1,0,1.7,0.2,2.3,0.7
		c1,0.8,1.2,1.8,1.2,3.1v3.8c0,1.1,0.4,1.4,0.7,1.4c0.3,0,0.5-0.1,0.8-0.2l0.2,0.7L62.4,16.6z M60.3,10.8c-0.4,0.2-0.8,0.5-1.3,0.7
		c-0.7,0.4-1.1,0.8-1.1,1.6c0,1.3,0.9,1.8,1.4,1.8c0.3,0,0.6-0.1,1-0.4V10.8z"/>
	<path class="st0" d="M65.1,16.3v-0.7c1.4-0.2,1.5-0.3,1.5-1.8V3.1c0-1.4-0.1-1.5-1.4-1.6V0.8c1.3-0.2,3-0.5,4.3-0.8v13.8
		c0,1.6,0.1,1.7,1.6,1.8v0.7H65.1z"/>
	<path class="st0" d="M87.6,11c0,3.7-2.7,5.6-5.4,5.6c-3.7,0-5.4-2.7-5.4-5.2c0-3.7,3-5.6,5.5-5.6C85.6,5.8,87.6,8.2,87.6,11z
		 M80.1,10.6c0,2.9,0.9,5.1,2.4,5.1c0.9,0,1.8-0.6,1.8-4c0-3.2-0.8-5-2.3-5C81,6.7,80.1,7.9,80.1,10.6z"/>
	<path class="st0" d="M90.1,6.1V5.6c0-0.5,0.1-1,0.3-1.6c0.2-0.5,0.7-1.6,2-2.7C93.2,0.6,94,0.1,95.1,0C96,0,96.6,0.3,97,0.7
		c0.3,0.3,0.3,0.7,0.2,1c-0.1,0.3-0.3,0.6-0.7,0.8c-0.3,0.2-0.6,0.2-0.8,0c-0.6-0.6-1.3-1.2-2-1.2c-0.4,0-0.6,0.3-0.7,0.6
		c-0.1,0.4-0.1,1.2,0,3.2l0,0.8h2.7c0.1,0.3,0,1-0.3,1.1H93v6.6c0,1.4,0.2,1.6,1.9,1.8v0.7h-6.3v-0.7c1.3-0.2,1.4-0.3,1.4-1.8V7.2
		h-1.5l-0.1-0.3l0.7-0.8H90.1z"/>
	<path class="st0" d="M111.7,4.9c-0.3-0.9-0.5-1.6-0.9-2c-0.5-0.5-1.1-0.7-2.4-0.7h-1.2c-0.8,0-0.9,0-0.9,0.8v5.1h1.9
		c2.1,0,2.3-0.2,2.6-1.7h0.8v4.6h-0.8c-0.3-1.6-0.5-1.8-2.6-1.8h-1.9V13c0,2.2,0.2,2.3,2.2,2.5v0.8h-7.3v-0.8
		c1.7-0.2,1.9-0.3,1.9-2.5V4.5c0-2.1-0.2-2.3-1.9-2.4V1.2h11c0,0.4,0.1,2.2,0.3,3.5L111.7,4.9z"/>
	<path class="st0" d="M113.6,16.3v-0.7c1.3-0.2,1.5-0.3,1.5-1.9V9.1c0-1.5-0.2-1.6-1.3-1.8V6.6c1.4-0.2,2.9-0.5,4.2-0.8v7.9
		c0,1.6,0.1,1.7,1.5,1.9v0.7H113.6z M114.7,2.7c0-0.9,0.8-1.6,1.7-1.6c0.9,0,1.7,0.7,1.7,1.6c0,0.9-0.7,1.6-1.7,1.6
		C115.5,4.3,114.7,3.6,114.7,2.7z"/>
	<path class="st0" d="M127,16.3v-0.7c1-0.2,1.1-0.2,1.1-1.9v-4c0-1.7-0.8-2.2-1.6-2.2c-0.6,0-1.1,0.3-1.7,0.7v5.6
		c0,1.4,0.1,1.5,1.1,1.7v0.7h-5.6v-0.7c1.4-0.2,1.6-0.2,1.6-1.8V9c0-1.4-0.1-1.5-1.3-1.7V6.6c1.3-0.2,2.8-0.5,4.2-0.9v1.7
		c0.5-0.3,0.9-0.7,1.4-1c0.7-0.4,1.1-0.7,1.8-0.7c1.9,0,3,1.4,3,3.7v4.4c0,1.5,0.1,1.5,1.3,1.7v0.7H127z"/>
	<path class="st0" d="M140.9,16.6c-0.6,0-1.1-0.2-1.4-0.5c-0.3-0.3-0.5-0.6-0.6-0.9c-0.9,0.6-2,1.3-2.4,1.3c-2,0-3.1-1.5-3.1-3
		c0-1.2,0.6-1.8,1.8-2.2c1.4-0.5,3.2-1.1,3.7-1.5V9.2c0-1.5-0.6-2.3-1.4-2.3c-0.3,0-0.6,0.1-0.8,0.4c-0.3,0.3-0.5,0.9-0.7,1.6
		c-0.2,0.6-0.5,0.8-1,0.8c-0.6,0-1.4-0.6-1.4-1.2c0-0.4,0.3-0.7,0.8-1.1c0.9-0.6,2.5-1.4,3.9-1.7c1,0,1.7,0.2,2.3,0.7
		c1,0.8,1.2,1.8,1.2,3.1v3.8c0,1.1,0.4,1.4,0.7,1.4c0.3,0,0.5-0.1,0.8-0.2l0.2,0.7L140.9,16.6z M138.8,10.8
		c-0.4,0.2-0.8,0.5-1.3,0.7c-0.7,0.4-1.1,0.8-1.1,1.6c0,1.3,0.9,1.8,1.4,1.8c0.3,0,0.6-0.1,1-0.4V10.8z"/>
	<path class="st0" d="M150.7,16.3v-0.7c1-0.2,1.1-0.2,1.1-1.9v-4c0-1.7-0.8-2.2-1.6-2.2c-0.6,0-1.1,0.3-1.7,0.7v5.6
		c0,1.4,0.1,1.5,1.1,1.7v0.7H144v-0.7c1.4-0.2,1.6-0.2,1.6-1.8V9c0-1.4-0.1-1.5-1.3-1.7V6.6c1.3-0.2,2.8-0.5,4.2-0.9v1.7
		c0.5-0.3,0.9-0.7,1.4-1c0.7-0.4,1.1-0.7,1.8-0.7c1.9,0,3,1.4,3,3.7v4.4c0,1.5,0.1,1.5,1.3,1.7v0.7H150.7z"/>
	<path class="st0" d="M166.1,14.1c-1.1,1.5-2.6,2.5-4,2.5c-3.2,0-5-2.4-5-5c0-1.7,0.9-3.3,2.3-4.4c1.5-1.1,3-1.4,4-1.4
		c0.8,0,1.6,0.3,2,0.6c0.3,0.2,0.4,0.5,0.4,0.8c0,0.7-0.6,1.3-1,1.3c-0.2,0-0.3-0.1-0.5-0.3c-1-0.8-1.7-1.2-2.3-1.2
		c-0.9,0-2,0.9-2,3.4c0,3.1,2.2,4.1,3.2,4.1c1,0,1.7-0.2,2.5-1L166.1,14.1z"/>
	<path class="st0" d="M166.7,16.3v-0.7c1.3-0.2,1.5-0.3,1.5-1.9V9.1c0-1.5-0.2-1.6-1.3-1.8V6.6c1.4-0.2,2.9-0.5,4.2-0.8v7.9
		c0,1.6,0.1,1.7,1.5,1.9v0.7H166.7z M167.9,2.7c0-0.9,0.8-1.6,1.7-1.6c0.9,0,1.7,0.7,1.7,1.6c0,0.9-0.7,1.6-1.7,1.6
		C168.6,4.3,167.9,3.6,167.9,2.7z"/>
	<path class="st0" d="M181,16.6c-0.6,0-1.1-0.2-1.4-0.5c-0.3-0.3-0.5-0.6-0.6-0.9c-0.9,0.6-2,1.3-2.4,1.3c-2,0-3.1-1.5-3.1-3
		c0-1.2,0.6-1.8,1.8-2.2c1.4-0.5,3.2-1.1,3.7-1.5V9.2c0-1.5-0.6-2.3-1.4-2.3c-0.3,0-0.6,0.1-0.8,0.4c-0.3,0.3-0.5,0.9-0.7,1.6
		c-0.2,0.6-0.5,0.8-1,0.8c-0.6,0-1.4-0.6-1.4-1.2c0-0.4,0.3-0.7,0.8-1.1c0.9-0.6,2.5-1.4,3.9-1.7c1,0,1.7,0.2,2.3,0.7
		c1,0.8,1.2,1.8,1.2,3.1v3.8c0,1.1,0.4,1.4,0.7,1.4c0.3,0,0.5-0.1,0.8-0.2l0.2,0.7L181,16.6z M178.9,10.8c-0.4,0.2-0.8,0.5-1.3,0.7
		c-0.7,0.4-1.1,0.8-1.1,1.6c0,1.3,0.9,1.8,1.4,1.8c0.3,0,0.6-0.1,1-0.4V10.8z"/>
	<path class="st0" d="M183.7,16.3v-0.7c1.4-0.2,1.5-0.3,1.5-1.8V3.1c0-1.4-0.1-1.5-1.4-1.6V0.8c1.3-0.2,3-0.5,4.3-0.8v13.8
		c0,1.6,0.1,1.7,1.6,1.8v0.7H183.7z"/>
	<path class="st0" d="M210.2,16.6c-0.1,0-0.4,0-0.7,0c-2.9-0.1-3.8-0.8-4.8-2.3c-0.6-1-1.2-2.2-1.9-3.4c-0.4-0.7-0.8-1-1.5-1h-0.4
		v3.4c0,1.9,0.2,2.1,2,2.3v0.8h-7v-0.8c1.7-0.2,2-0.4,2-2.3V4.3c0-1.9-0.2-2.1-1.9-2.3V1.2h6.5c2,0,3.2,0.2,4.1,0.9
		c0.9,0.6,1.6,1.7,1.6,3.1c0,2-1.3,3.1-2.9,3.8c0.3,0.7,1.2,2.2,1.9,3.3c0.8,1.3,1.3,2,1.8,2.5c0.5,0.5,0.9,0.8,1.4,1L210.2,16.6z
		 M201.4,8.9c1,0,1.8-0.2,2.3-0.6c0.8-0.7,1.1-1.6,1.1-2.8c0-2.5-1.4-3.4-2.7-3.4c-0.6,0-0.9,0.1-1,0.2c-0.2,0.1-0.2,0.4-0.2,0.9
		v5.7H201.4z"/>
	<path class="st0" d="M219.7,14c-1.4,2.1-3.2,2.6-4.2,2.6c-3.1,0-4.8-2.3-4.8-5c0-1.8,0.7-3.3,1.7-4.2c1-1,2.3-1.7,3.6-1.7
		c2.1,0,3.8,1.8,3.8,3.7c0,0.5-0.1,0.8-0.7,0.8c-0.4,0-3.3,0.3-5.5,0.4c0.1,2.5,1.5,3.7,3.1,3.7c0.9,0,1.8-0.3,2.6-1L219.7,14z
		 M213.7,9.6c1,0,1.8,0,2.8-0.1c0.3,0,0.5-0.1,0.5-0.5c0-1.2-0.5-2.4-1.4-2.4C214.6,6.7,213.8,7.8,213.7,9.6z"/>
	<path class="st0" d="M231.6,6.3c-0.1,0.4-0.6,1.2-1,1.4l-1.3-0.1c0.4,0.4,0.6,1,0.6,1.8c0,2.4-2.2,3.6-4.4,3.6
		c-0.4,0-0.8-0.1-1.1-0.1c-0.2,0.2-0.3,0.4-0.3,0.7c0,0.4,0.4,0.9,1.5,0.9c0.7,0,1.4,0,2.1,0c1.4,0,3.6,0.4,3.6,2.8
		c0,2.7-3.1,4.8-6.2,4.8c-3,0-4.3-1.5-4.3-2.8c0-0.5,0.3-0.9,0.7-1.3c0.6-0.4,1.2-0.8,1.8-1.1c-1-0.3-1.4-0.8-1.7-1.3
		c-0.3-0.4-0.4-0.9-0.3-1.3c1.2-0.5,1.9-1.1,2.4-1.5c-1.4-0.5-2.3-1.7-2.3-3.1c0-2.6,2.4-3.8,4.5-3.8c1,0,1.6,0.2,2.5,0.6
		c1.2,0,2.4-0.2,3.4-0.3L231.6,6.3z M223.7,17.3c-0.3,0.3-0.5,0.7-0.5,1.2c0,1.1,1.2,2.2,3,2.2c1.8,0,2.8-1,2.8-2.2
		c0-0.8-0.6-1.3-1.3-1.5c-0.6-0.2-1.1-0.2-2-0.2C224.6,16.8,224.1,16.9,223.7,17.3z M224.1,9.2c0,1.6,0.5,2.9,1.6,2.9
		c0.9,0,1.4-0.9,1.4-2.7c0-1.5-0.5-2.9-1.6-2.9C224.8,6.6,224.1,7.5,224.1,9.2z"/>
	<path class="st0" d="M244,15.8c-1.4,0.2-2.8,0.5-4.3,0.8l-0.2-0.2v-1.4c-0.4,0.3-0.7,0.6-1.2,0.9c-0.7,0.4-1.3,0.7-2,0.7
		c-2,0-3-1.3-3-3.3V8.5c0-1.1-0.1-1.2-1.3-1.5V6.3c1.4-0.1,2.8-0.2,4.3-0.4c0,1-0.1,2.2-0.1,3.5v3.4c0,1.5,0.8,2,1.6,2
		c0.6,0,1.1-0.1,1.7-0.7V8.5c0-1.2-0.1-1.3-1.5-1.5V6.3c1.4-0.1,2.9-0.2,4.4-0.4v7.6c0,1.2,0.1,1.4,1,1.5l0.5,0V15.8z"/>
	<path class="st0" d="M244.6,16.3v-0.7c1.4-0.2,1.5-0.3,1.5-1.8V3.1c0-1.4-0.1-1.5-1.4-1.6V0.8c1.3-0.2,3-0.5,4.3-0.8v13.8
		c0,1.6,0.1,1.7,1.6,1.8v0.7H244.6z"/>
	<path class="st0" d="M259,16.6c-0.6,0-1.1-0.2-1.4-0.5c-0.3-0.3-0.5-0.6-0.6-0.9c-0.9,0.6-2,1.3-2.4,1.3c-2,0-3.1-1.5-3.1-3
		c0-1.2,0.6-1.8,1.8-2.2c1.4-0.5,3.2-1.1,3.7-1.5V9.2c0-1.5-0.6-2.3-1.4-2.3c-0.3,0-0.6,0.1-0.8,0.4c-0.3,0.3-0.5,0.9-0.7,1.6
		c-0.2,0.6-0.5,0.8-1,0.8c-0.6,0-1.4-0.6-1.4-1.2c0-0.4,0.3-0.7,0.8-1.1c0.9-0.6,2.5-1.4,3.9-1.7c1,0,1.7,0.2,2.3,0.7
		c1,0.8,1.2,1.8,1.2,3.1v3.8c0,1.1,0.4,1.4,0.7,1.4c0.3,0,0.5-0.1,0.8-0.2l0.2,0.7L259,16.6z M256.9,10.8c-0.4,0.2-0.8,0.5-1.3,0.7
		c-0.7,0.4-1.1,0.8-1.1,1.6c0,1.3,0.9,1.8,1.4,1.8c0.3,0,0.6-0.1,1-0.4V10.8z"/>
	<path class="st0" d="M266.8,16.4c-0.4,0.2-0.8,0.3-1,0.3c-1.8,0-2.8-0.8-2.8-2.9V7.2h-1.5l-0.1-0.3l0.7-0.8h0.9V4.4l2.6-1.8
		l0.3,0.1v3.4h2.3c0.3,0.3,0.2,0.9-0.1,1.1H266v5.7c0,1.8,0.8,2,1.3,2c0.4,0,0.8-0.1,1.2-0.3l0.2,0.8L266.8,16.4z"/>
	<path class="st0" d="M269.3,16.3v-0.7c1.3-0.2,1.5-0.3,1.5-1.9V9.1c0-1.5-0.2-1.6-1.3-1.8V6.6c1.4-0.2,2.9-0.5,4.2-0.8v7.9
		c0,1.6,0.1,1.7,1.5,1.9v0.7H269.3z M270.4,2.7c0-0.9,0.8-1.6,1.7-1.6c0.9,0,1.7,0.7,1.7,1.6c0,0.9-0.7,1.6-1.7,1.6
		C271.2,4.3,270.4,3.6,270.4,2.7z"/>
	<path class="st0" d="M287,11c0,3.7-2.7,5.6-5.4,5.6c-3.7,0-5.4-2.7-5.4-5.2c0-3.7,3-5.6,5.5-5.6C284.9,5.8,287,8.2,287,11z
		 M279.5,10.6c0,2.9,0.9,5.1,2.4,5.1c0.9,0,1.8-0.6,1.8-4c0-3.2-0.8-5-2.3-5C280.4,6.7,279.5,7.9,279.5,10.6z"/>
	<path class="st0" d="M294.6,16.3v-0.7c1-0.2,1.1-0.2,1.1-1.9v-4c0-1.7-0.8-2.2-1.6-2.2c-0.6,0-1.1,0.3-1.7,0.7v5.6
		c0,1.4,0.1,1.5,1.1,1.7v0.7h-5.6v-0.7c1.4-0.2,1.6-0.2,1.6-1.8V9c0-1.4-0.1-1.5-1.3-1.7V6.6c1.3-0.2,2.8-0.5,4.2-0.9v1.7
		c0.5-0.3,0.9-0.7,1.4-1c0.7-0.4,1.1-0.7,1.8-0.7c1.9,0,3,1.4,3,3.7v4.4c0,1.5,0.1,1.5,1.3,1.7v0.7H294.6z"/>
</g>
</svg>
