<?xml version="1.0" encoding="utf-8"?>
<!-- Generator: Adobe Illustrator 19.1.0, SVG Export Plug-In . SVG Version: 6.00 Build 0)  -->
<svg version="1.1" id="Layer_1" xmlns="http://www.w3.org/2000/svg" xmlns:xlink="http://www.w3.org/1999/xlink" x="0px" y="0px"
	 viewBox="-99 52.1 300 45.5" style="enable-background:new -99 52.1 300 45.5;" xml:space="preserve">
<style type="text/css">
	.st0{fill:#C6C6C5;}
	.st1{fill:#FFFFFF;}
</style>
<g>
	<path class="st0" d="M-77.4,63.5c-1.1,0-1.9-0.3-2.7-1.1l1.1-1.1c0.4,0.4,0.8,0.7,1.6,0.7c1.3,0,2-0.8,2-2.2v-7.5h1.7v7.6
		C-73.7,62.2-75.4,63.5-77.4,63.5z"/>
	<path class="st0" d="M-66.2,62.5c-0.5,0.5-1.3,0.9-2.4,0.9s-1.8-0.4-2.4-0.9c-0.8-0.8-0.9-1.8-0.9-3.1c0-1.3,0.2-2.3,0.9-3.1
		c0.5-0.5,1.3-0.9,2.4-0.9s1.9,0.4,2.4,0.9c0.8,0.8,0.9,1.8,0.9,3.1C-65.2,60.7-65.4,61.7-66.2,62.5z M-67.4,57.2
		c-0.3-0.3-0.7-0.5-1.2-0.5s-0.9,0.2-1.2,0.5c-0.5,0.5-0.5,1.3-0.5,2.2c0,0.9,0.1,1.7,0.5,2.2c0.3,0.3,0.7,0.5,1.2,0.5
		s0.9-0.2,1.2-0.5c0.5-0.5,0.5-1.3,0.5-2.2S-66.9,57.7-67.4,57.2z"/>
	<path class="st0" d="M-58.6,63.4v-0.8c-0.5,0.6-1.3,0.9-2.1,0.9c-0.8,0-1.5-0.3-2-0.7c-0.6-0.6-0.8-1.3-0.8-2.2v-5.1h1.6v4.8
		c0,1.2,0.7,1.8,1.6,1.8c0.9,0,1.6-0.5,1.6-1.8v-4.8h1.6v7.9H-58.6z"/>
	<path class="st0" d="M-50.4,57.3c-0.4-0.4-0.6-0.5-1.2-0.5c-0.9,0-1.6,0.7-1.6,1.8v4.8h-1.6v-7.9h1.6v0.9c0.4-0.6,1.2-1,2.1-1
		c0.8,0,1.3,0.2,1.9,0.8L-50.4,57.3z"/>
	<path class="st0" d="M-43.5,63.4v-4.8c0-1.2-0.7-1.8-1.6-1.8c-0.9,0-1.6,0.5-1.6,1.8v4.8h-1.6v-7.9h1.6v0.8
		c0.5-0.6,1.3-0.9,2.1-0.9c0.8,0,1.5,0.3,2,0.7c0.6,0.6,0.8,1.3,0.8,2.2v5.1H-43.5z"/>
	<path class="st0" d="M-35.4,63.4v-0.7c-0.6,0.6-1.1,0.8-2.1,0.8c-1,0-1.6-0.2-2.1-0.7c-0.4-0.4-0.6-1-0.6-1.7
		c0-1.3,0.9-2.3,2.8-2.3h2.1v-0.6c0-1-0.5-1.5-1.7-1.5c-0.8,0-1.3,0.2-1.7,0.8l-1-1c0.7-0.9,1.5-1.2,2.8-1.2c2.2,0,3.3,0.9,3.3,2.7
		v5.3L-35.4,63.4L-35.4,63.4z M-35.4,59.9h-1.8c-1,0-1.5,0.4-1.5,1.1s0.5,1.1,1.5,1.1c0.6,0,1-0.1,1.4-0.5c0.2-0.2,0.3-0.6,0.3-1.2
		V59.9z"/>
	<path class="st0" d="M-29.6,63.4c-1.5,0-2.2-1-2.2-2.2v-8.9h1.6v8.9c0,0.6,0.2,0.9,0.9,0.9h0.7v1.4H-29.6z"/>
	<path class="st0" d="M-18.1,62.5c-0.5,0.5-1.3,0.9-2.4,0.9c-1.1,0-1.8-0.4-2.4-0.9c-0.8-0.8-0.9-1.8-0.9-3.1c0-1.3,0.2-2.3,0.9-3.1
		c0.5-0.5,1.3-0.9,2.4-0.9c1.1,0,1.9,0.4,2.4,0.9c0.8,0.8,0.9,1.8,0.9,3.1C-17.1,60.7-17.3,61.7-18.1,62.5z M-19.3,57.2
		c-0.3-0.3-0.7-0.5-1.2-0.5c-0.5,0-0.9,0.2-1.2,0.5c-0.5,0.5-0.5,1.3-0.5,2.2c0,0.9,0.1,1.7,0.5,2.2c0.3,0.3,0.7,0.5,1.2,0.5
		c0.5,0,0.9-0.2,1.2-0.5c0.5-0.5,0.5-1.3,0.5-2.2S-18.8,57.7-19.3,57.2z"/>
	<path class="st0" d="M-13.5,56.7v6.7h-1.6v-6.7H-16v-1.2h0.9v-1.1c0-1.1,0.7-2.2,2.2-2.2h1v1.4h-0.7c-0.6,0-0.9,0.3-0.9,0.9v1h1.6
		v1.2H-13.5z"/>
</g>
<g>
	<path class="st1" d="M-99,88.3V60h2.1v26.3h15v1.9L-99,88.3L-99,88.3z"/>
	<path class="st1" d="M-67.9,88.3v-1.9c-1.6,1.6-3.1,2.1-5.8,2.1c-2.9,0-4.4-0.5-5.6-1.7c-0.9-0.9-1.4-2.3-1.4-3.7
		c0-3.5,2.5-5.5,6.7-5.5h6.2v-2.1c0-3.1-1.5-4.7-5.4-4.7c-2.7,0-4,0.7-5.3,2.4l-1.5-1.3c1.6-2.3,3.6-2.9,6.7-2.9
		c5.1,0,7.4,2.3,7.4,6.3v13.1H-67.9z M-67.9,79.1h-5.9c-3.3,0-4.9,1.3-4.9,3.8c0,2.5,1.5,3.7,5,3.7c1.7,0,3.4-0.2,4.8-1.5
		c0.7-0.7,1.1-1.9,1.1-3.6C-67.9,81.6-67.9,79.1-67.9,79.1z"/>
	<path class="st1" d="M-48,88.3V76.4c0-3.7-1.8-5.7-5.3-5.7c-3.5,0-5.4,2.1-5.4,5.7v11.9h-2V69.2h2v2.3c1.4-1.7,3.3-2.5,5.6-2.5
		c2.1,0,3.8,0.6,5.1,1.8c1.3,1.3,2,3.1,2,5.3v12.2H-48z"/>
	<path class="st1" d="M-35,97.6c-2.9,0-4.3-0.8-6.3-2.5l1.3-1.3c1.5,1.4,2.5,2.1,5,2.1c4,0,5.8-2.8,5.8-6.6v-3.4
		c-1.7,2.2-3.5,2.7-5.7,2.7c-2,0-3.7-0.7-4.7-1.7c-1.9-1.9-2.5-5.1-2.5-8.1c0-3,0.5-6.2,2.5-8.1c1-1,2.7-1.7,4.7-1.7
		c2.2,0,4,0.5,5.7,2.7v-2.5h2v20.2C-27.2,94.1-30,97.6-35,97.6z M-34.6,70.7c-4.7,0-5.4,4-5.4,8c0,4,0.7,8,5.4,8c4.7,0,5.4-4,5.4-8
		C-29.2,74.7-29.9,70.7-34.6,70.7z"/>
	<path class="st1" d="M-9.4,88.3V86c-1.4,1.7-3.3,2.5-5.6,2.5c-2.1,0-3.8-0.6-5.1-1.8c-1.3-1.3-2-3.1-2-5.3V69.2h2V81
		c0,3.7,1.8,5.7,5.3,5.7c3.5,0,5.4-2.1,5.4-5.7V69.2h2v19.1H-9.4z"/>
	<path class="st1" d="M9.2,88.3v-1.9c-1.6,1.6-3.1,2.1-5.8,2.1c-2.9,0-4.4-0.5-5.6-1.7c-0.9-0.9-1.4-2.3-1.4-3.7
		c0-3.5,2.5-5.5,6.7-5.5h6.2v-2.1c0-3.1-1.5-4.7-5.4-4.7c-2.7,0-4,0.7-5.3,2.4l-1.5-1.3c1.6-2.3,3.6-2.9,6.7-2.9
		c5.1,0,7.4,2.3,7.4,6.3v13.1H9.2z M9.2,79.1H3.3c-3.3,0-4.9,1.3-4.9,3.8c0,2.5,1.5,3.7,5,3.7c1.7,0,3.4-0.2,4.8-1.5
		c0.7-0.7,1.1-1.9,1.1-3.6V79.1z"/>
	<path class="st1" d="M22.4,97.6c-2.9,0-4.3-0.8-6.3-2.5l1.3-1.3c1.5,1.4,2.5,2.1,5,2.1c4,0,5.8-2.8,5.8-6.6v-3.4
		c-1.7,2.2-3.5,2.7-5.7,2.7c-2,0-3.7-0.7-4.7-1.7c-1.9-1.9-2.5-5.1-2.5-8.1c0-3,0.5-6.2,2.5-8.1c1-1,2.7-1.7,4.7-1.7
		c2.2,0,4,0.5,5.7,2.7v-2.5h2v20.2C30.2,94.1,27.3,97.6,22.4,97.6z M22.8,70.7c-4.7,0-5.4,4-5.4,8c0,4,0.7,8,5.4,8s5.4-4,5.4-8
		C28.2,74.7,27.4,70.7,22.8,70.7z"/>
	<path class="st1" d="M36.4,79.1c0,4.9,2.1,7.5,6.2,7.5c2.3,0,3.6-0.7,5.3-2.3l1.5,1.2c-1.9,1.9-3.7,2.9-6.9,2.9
		c-5.3,0-8.1-3.4-8.1-9.8c0-6.2,2.9-9.8,7.7-9.8c4.8,0,7.7,3.5,7.7,9.3v0.9C49.7,79.1,36.4,79.1,36.4,79.1z M47,73.9
		c-0.8-2-2.7-3.2-5-3.2c-2.2,0-4,1.2-5,3.2c-0.5,1.2-0.6,1.8-0.7,3.6h11.3C47.6,75.7,47.6,75.1,47,73.9z"/>
</g>
<g>
	<path class="st1" d="M66.9,88.1V59.9H84v1.9H69v11.1h12.8v1.9H69v11.4h15v1.9L66.9,88.1L66.9,88.1z"/>
	<path class="st1" d="M93.4,88.1h-2l-7-19.1h2.2l5.8,16.7L98.2,69h2.2L93.4,88.1z"/>
	<path class="st1" d="M114.4,86.2c-1.4,1.4-3.2,2.1-5.3,2.1c-2.1,0-3.9-0.7-5.3-2.1c-2-2-2.4-5-2.4-7.7s0.4-5.7,2.4-7.7
		c1.4-1.4,3.2-2.1,5.3-2.1c2.1,0,3.9,0.7,5.3,2.1c2,2,2.4,5,2.4,7.7C116.8,81.3,116.4,84.2,114.4,86.2z M113,72.2
		c-1.1-1.1-2.4-1.6-4-1.6c-1.5,0-2.9,0.6-4,1.6c-1.6,1.6-1.7,4.2-1.7,6.4c0,2.2,0.1,4.8,1.7,6.4c1.1,1.1,2.4,1.6,4,1.6
		c1.5,0,2.9-0.6,4-1.6c1.6-1.6,1.7-4.2,1.7-6.4C114.7,76.3,114.6,73.8,113,72.2z"/>
	<path class="st1" d="M125.5,88.1c-3.1,0-4.6-1.9-4.6-5V59.9h2v23.2c0,2.2,0.7,3.2,2.9,3.2h1.4v1.8L125.5,88.1L125.5,88.1z"/>
	<path class="st1" d="M142.5,88.1v-2.3c-1.4,1.7-3.3,2.5-5.6,2.5c-2.1,0-3.8-0.6-5.1-1.8c-1.3-1.3-2-3.1-2-5.3V69h2v11.9
		c0,3.7,1.8,5.7,5.3,5.7c3.5,0,5.4-2.1,5.4-5.7V69h2v19.1H142.5z"/>
	<path class="st1" d="M155,88.1c-3,0-4.6-2.1-4.6-5V70.5h-2.6V69h2.6v-6.1h2V69h4.3v1.5h-4.3v12.7c0,2,0.9,3.2,2.9,3.2h1.4v1.8
		L155,88.1L155,88.1z"/>
	<path class="st1" d="M160.1,62.4v-2.5h2.5v2.5H160.1z M160.4,88.1V69h2v19.1H160.4z"/>
	<path class="st1" d="M179.7,86.2c-1.4,1.4-3.2,2.1-5.3,2.1s-3.9-0.7-5.3-2.1c-2-2-2.4-5-2.4-7.7s0.4-5.7,2.4-7.7
		c1.4-1.4,3.2-2.1,5.3-2.1s3.9,0.7,5.3,2.1c2,2,2.4,5,2.4,7.7C182,81.3,181.7,84.2,179.7,86.2z M178.3,72.2c-1.1-1.1-2.4-1.6-4-1.6
		c-1.5,0-2.9,0.6-4,1.6c-1.6,1.6-1.7,4.2-1.7,6.4c0,2.2,0.1,4.8,1.7,6.4c1.1,1.1,2.4,1.6,4,1.6c1.5,0,2.9-0.6,4-1.6
		c1.6-1.6,1.7-4.2,1.7-6.4C180,76.3,179.9,73.8,178.3,72.2z"/>
	<path class="st1" d="M199,88.1V76.3c0-3.7-1.8-5.7-5.3-5.7s-5.4,2.1-5.4,5.7v11.9h-2V69h2v2.3c1.4-1.7,3.3-2.5,5.6-2.5
		c2.1,0,3.8,0.6,5.1,1.8c1.3,1.3,2,3.1,2,5.3v12.2L199,88.1L199,88.1z"/>
</g>
</svg>
