<?xml version="1.0" encoding="utf-8"?>
<!-- Generator: Adobe Illustrator 19.1.0, SVG Export Plug-In . SVG Version: 6.00 Build 0)  -->
<svg version="1.1" id="Layer_1" xmlns="http://www.w3.org/2000/svg" xmlns:xlink="http://www.w3.org/1999/xlink" x="0px" y="0px"
	 viewBox="9 18.3 430 53.5" style="enable-background:new 9 18.3 430 53.5;" xml:space="preserve">
<style type="text/css">
	.st0{fill:#2E444F;}
</style>
<g>
	<path class="st0" d="M12.3,18.5h2.4v16.3c0,1.5-0.2,2.6-0.5,3.4c-0.3,0.7-0.8,1.3-1.5,1.8c-0.7,0.4-1.5,0.7-2.5,0.7
		c-0.1,0-0.4,0-0.8-0.1L9,38.4h0.6c0.7,0,1.2-0.1,1.6-0.2c0.4-0.2,0.6-0.5,0.9-0.9c0.2-0.4,0.3-1.3,0.3-2.7V18.5z"/>
	<path class="st0" d="M28.3,18.3c2.6,0,4.7,0.8,6.4,2.4c1.7,1.6,2.5,3.6,2.5,6.1s-0.9,4.5-2.6,6.1c-1.7,1.6-3.9,2.4-6.5,2.4
		c-2.5,0-4.6-0.8-6.2-2.4c-1.7-1.6-2.5-3.6-2.5-6c0-2.5,0.8-4.5,2.5-6.1C23.7,19.1,25.8,18.3,28.3,18.3z M28.4,20.5
		c-1.9,0-3.4,0.6-4.7,1.8S22,25,22,26.9c0,1.8,0.6,3.3,1.8,4.4c1.2,1.2,2.8,1.8,4.6,1.8c1.8,0,3.4-0.6,4.6-1.8
		c1.2-1.2,1.8-2.7,1.8-4.5c0-1.8-0.6-3.2-1.8-4.4C31.8,21.1,30.2,20.5,28.4,20.5z"/>
	<path class="st0" d="M53.6,18.5h2.4v9.4c0,1.3-0.1,2.2-0.3,2.9c-0.2,0.6-0.4,1.2-0.7,1.6c-0.3,0.4-0.6,0.8-1,1.2
		c-1.3,1.1-3,1.7-5.1,1.7c-2.2,0-3.9-0.6-5.2-1.7c-0.4-0.3-0.7-0.7-1-1.2c-0.3-0.4-0.5-1-0.7-1.6c-0.2-0.6-0.3-1.6-0.3-2.9v-9.4h2.4
		v9.4c0,1.6,0.2,2.6,0.5,3.2s0.9,1.1,1.6,1.5c0.7,0.4,1.6,0.5,2.6,0.5c1.4,0,2.5-0.4,3.4-1.1c0.5-0.4,0.8-0.9,1-1.4
		c0.2-0.5,0.3-1.5,0.3-2.8V18.5z"/>
	<path class="st0" d="M61.4,35.1V18.5h4.1c1.7,0,3,0.4,4,1.2c1,0.8,1.5,1.9,1.5,3.4c0,1-0.2,1.8-0.7,2.5c-0.5,0.7-1.2,1.2-2.1,1.6
		c0.5,0.3,1,0.8,1.5,1.4c0.5,0.6,1.2,1.6,2.1,3.1c0.6,0.9,1,1.6,1.4,2.1l0.9,1.2h-2.8L70.6,34c0,0-0.1-0.1-0.1-0.2L70,33.1l-0.7-1.2
		l-0.8-1.3c-0.5-0.7-0.9-1.2-1.3-1.6c-0.4-0.4-0.8-0.7-1.1-0.9c-0.3-0.2-0.9-0.3-1.7-0.3h-0.6v7.2H61.4z M64.5,20.5h-0.7v5.2h0.9
		c1.2,0,2-0.1,2.5-0.3c0.4-0.2,0.8-0.5,1-0.9c0.2-0.4,0.4-0.9,0.4-1.4c0-0.5-0.1-1-0.4-1.4c-0.3-0.4-0.7-0.7-1.2-0.9
		C66.4,20.6,65.6,20.5,64.5,20.5z"/>
	<path class="st0" d="M90.9,18.5h2.2v16.5h-2L80.1,22.3v12.7h-2.2V18.5h1.9l11.1,12.8V18.5z"/>
	<path class="st0" d="M103.9,18.4h1.7l7.4,16.6h-2.4l-2.2-4.9h-7.1l-2.1,4.9h-2.4L103.9,18.4z M107.4,28.1l-2.7-6l-2.5,6H107.4z"/>
	<path class="st0" d="M116.7,18.5h2.4v14.4h7.4v2.2h-9.8V18.5z"/>
	<path class="st0" d="M147,18.3c2.6,0,4.7,0.8,6.4,2.4c1.7,1.6,2.5,3.6,2.5,6.1s-0.9,4.5-2.6,6.1c-1.7,1.6-3.9,2.4-6.5,2.4
		c-2.5,0-4.6-0.8-6.2-2.4c-1.7-1.6-2.5-3.6-2.5-6c0-2.5,0.8-4.5,2.5-6.1C142.4,19.1,144.5,18.3,147,18.3z M147.1,20.5
		c-1.9,0-3.4,0.6-4.7,1.8c-1.2,1.2-1.8,2.7-1.8,4.5c0,1.8,0.6,3.3,1.8,4.4s2.8,1.8,4.6,1.8c1.8,0,3.4-0.6,4.6-1.8
		c1.2-1.2,1.9-2.7,1.9-4.5c0-1.8-0.6-3.2-1.9-4.4C150.4,21.1,148.9,20.5,147.1,20.5z"/>
	<path class="st0" d="M160.8,18.5h8.8v2.1h-6.4v4.6h6.4v2.1h-6.4v7.7h-2.4V18.5z"/>
	<path class="st0" d="M15.7,62.1l-2.5-1.5c-1.5-0.9-2.6-1.9-3.3-2.8c-0.7-0.9-1-2-1-3.1c0-1.8,0.6-3.2,1.8-4.3
		c1.2-1.1,2.8-1.7,4.8-1.7c1.9,0,3.6,0.5,5.2,1.6V54c-1.6-1.6-3.4-2.3-5.2-2.3c-1.1,0-1.9,0.2-2.6,0.7c-0.7,0.5-1,1.1-1,1.9
		c0,0.7,0.2,1.3,0.7,1.9c0.5,0.6,1.3,1.2,2.4,1.9l2.5,1.5c2.7,1.6,4.1,3.7,4.1,6.3c0,1.8-0.6,3.3-1.8,4.4c-1.2,1.1-2.8,1.7-4.7,1.7
		c-2.2,0-4.3-0.7-6.1-2.1v-4.1c1.7,2.2,3.8,3.3,6,3.3c1,0,1.9-0.3,2.5-0.8c0.7-0.6,1-1.3,1-2.1C18.7,64.6,17.7,63.3,15.7,62.1z"/>
	<path class="st0" d="M43.7,49h3.2v12.8c0,1.7-0.1,3-0.4,3.9c-0.3,0.9-0.6,1.6-0.9,2.2c-0.4,0.6-0.8,1.1-1.4,1.6
		c-1.8,1.5-4.1,2.3-7,2.3c-2.9,0-5.3-0.8-7.1-2.3c-0.5-0.5-1-1-1.4-1.6c-0.4-0.6-0.7-1.3-0.9-2.2s-0.4-2.2-0.4-4V49h3.2v12.8
		c0,2.1,0.2,3.6,0.7,4.4c0.5,0.8,1.2,1.5,2.2,2c1,0.5,2.2,0.7,3.5,0.7c1.9,0,3.5-0.5,4.7-1.5c0.6-0.5,1.1-1.2,1.4-1.9
		c0.3-0.7,0.4-2,0.4-3.8V49z"/>
	<path class="st0" d="M54.3,71.5V49h5.6c2.3,0,4.1,0.6,5.4,1.7c1.3,1.1,2,2.7,2,4.6c0,1.3-0.3,2.4-1,3.4c-0.7,1-1.6,1.7-2.8,2.1
		c0.7,0.5,1.4,1.1,2.1,1.9c0.7,0.8,1.7,2.2,2.9,4.3c0.8,1.3,1.4,2.2,1.9,2.9l1.2,1.6h-3.8l-1-1.5c0-0.1-0.1-0.1-0.2-0.3L66,68.9
		l-1-1.6l-1.1-1.8c-0.7-0.9-1.3-1.7-1.8-2.2c-0.6-0.5-1.1-0.9-1.5-1.2s-1.2-0.4-2.3-0.4h-0.8v9.8H54.3z M58.5,51.8h-1v7.1h1.2
		c1.6,0,2.8-0.1,3.4-0.4c0.6-0.3,1.1-0.7,1.4-1.3c0.3-0.6,0.5-1.2,0.5-1.9c0-0.7-0.2-1.4-0.6-1.9c-0.4-0.6-0.9-1-1.6-1.2
		S60,51.8,58.5,51.8z"/>
	<path class="st0" d="M87.5,60.5H95V70c-2.8,1.2-5.5,1.8-8.3,1.8c-3.7,0-6.7-1.1-8.9-3.3c-2.2-2.2-3.3-4.9-3.3-8.1
		c0-3.4,1.2-6.2,3.5-8.4c2.3-2.2,5.2-3.4,8.7-3.4c1.3,0,2.5,0.1,3.6,0.4c1.1,0.3,2.6,0.8,4.3,1.5v3.3c-2.7-1.6-5.4-2.3-8-2.3
		c-2.5,0-4.5,0.8-6.2,2.5c-1.7,1.7-2.5,3.7-2.5,6.2c0,2.6,0.8,4.6,2.5,6.3c1.7,1.6,3.9,2.4,6.5,2.4c1.3,0,2.8-0.3,4.6-0.9l0.3-0.1
		v-4.7h-4.3V60.5z"/>
	<path class="st0" d="M102.4,49h3.2v22.5h-3.2V49z"/>
	<path class="st0" d="M132.4,66.3v3.5c-2.4,1.3-5.1,1.9-8.2,1.9c-2.5,0-4.6-0.5-6.4-1.5c-1.8-1-3.1-2.4-4.2-4.2
		c-1-1.8-1.5-3.7-1.5-5.8c0-3.3,1.2-6,3.5-8.3s5.2-3.4,8.7-3.4c2.4,0,5,0.6,7.9,1.9V54c-2.6-1.5-5.2-2.3-7.7-2.3
		c-2.6,0-4.7,0.8-6.4,2.4c-1.7,1.6-2.6,3.7-2.6,6.1c0,2.5,0.8,4.5,2.5,6.1s3.8,2.4,6.4,2.4C127.1,68.8,129.8,68,132.4,66.3z"/>
	<path class="st0" d="M146.3,48.9h2.3l10.1,22.7h-3.3l-3-6.7h-9.6l-2.8,6.7h-3.3L146.3,48.9z M151,62l-3.6-8.2L144,62H151z"/>
	<path class="st0" d="M163.6,49h3.2v19.6H177v2.9h-13.4V49z"/>
	<path class="st0" d="M213.3,66.3v3.5c-2.4,1.3-5.1,1.9-8.2,1.9c-2.5,0-4.6-0.5-6.4-1.5c-1.8-1-3.1-2.4-4.2-4.2
		c-1-1.8-1.5-3.7-1.5-5.8c0-3.3,1.2-6,3.5-8.3c2.3-2.2,5.2-3.4,8.7-3.4c2.4,0,5,0.6,7.9,1.9V54c-2.6-1.5-5.2-2.3-7.7-2.3
		c-2.6,0-4.7,0.8-6.4,2.4c-1.7,1.6-2.6,3.7-2.6,6.1c0,2.5,0.8,4.5,2.5,6.1c1.7,1.6,3.8,2.4,6.4,2.4C208.1,68.8,210.7,68,213.3,66.3z
		"/>
	<path class="st0" d="M227.3,48.9h2.3l10.1,22.7h-3.3l-3-6.7h-9.6l-2.8,6.7h-3.3L227.3,48.9z M232,62l-3.6-8.2L225,62H232z"/>
	<path class="st0" d="M250.4,62.1l-2.5-1.5c-1.5-0.9-2.6-1.9-3.3-2.8c-0.6-0.9-1-2-1-3.1c0-1.8,0.6-3.2,1.8-4.3
		c1.2-1.1,2.8-1.7,4.8-1.7c1.9,0,3.6,0.5,5.2,1.6V54c-1.6-1.6-3.4-2.3-5.2-2.3c-1.1,0-1.9,0.2-2.6,0.7c-0.7,0.5-1,1.1-1,1.9
		c0,0.7,0.2,1.3,0.7,1.9c0.5,0.6,1.3,1.2,2.4,1.9l2.5,1.5c2.7,1.6,4.1,3.7,4.1,6.3c0,1.8-0.6,3.3-1.8,4.4c-1.2,1.1-2.8,1.7-4.7,1.7
		c-2.2,0-4.3-0.7-6.1-2.1v-4.1c1.7,2.2,3.8,3.3,6,3.3c1,0,1.9-0.3,2.5-0.8c0.7-0.6,1-1.3,1-2.1C253.4,64.6,252.4,63.3,250.4,62.1z"
		/>
	<path class="st0" d="M262.7,49h12.8v2.9h-9.5v6.9h9.2v2.9h-9.2v7h9.9v2.9h-13.1V49z"/>
	<path class="st0" d="M293.4,71.5V49h5.6c2.3,0,4.1,0.6,5.4,1.7c1.3,1.1,2,2.7,2,4.6c0,1.3-0.3,2.4-1,3.4c-0.7,1-1.6,1.7-2.8,2.1
		c0.7,0.5,1.4,1.1,2.1,1.9c0.7,0.8,1.7,2.2,2.9,4.3c0.8,1.3,1.4,2.2,1.9,2.9l1.2,1.6h-3.8l-1-1.5c0-0.1-0.1-0.1-0.2-0.3l-0.6-0.9
		l-1-1.6l-1.1-1.8c-0.7-0.9-1.3-1.7-1.8-2.2c-0.6-0.5-1.1-0.9-1.5-1.2s-1.2-0.4-2.3-0.4h-0.8v9.8H293.4z M297.6,51.8h-1v7.1h1.2
		c1.6,0,2.8-0.1,3.4-0.4c0.6-0.3,1.1-0.7,1.4-1.3c0.3-0.6,0.5-1.2,0.5-1.9c0-0.7-0.2-1.4-0.6-1.9c-0.4-0.6-0.9-1-1.6-1.2
		C300.3,51.9,299.2,51.8,297.6,51.8z"/>
	<path class="st0" d="M315.7,49h12.8v2.9H319v6.9h9.2v2.9H319v7h9.9v2.9h-13.1V49z"/>
	<path class="st0" d="M334.9,71.5V49h7.1c2.2,0,3.9,0.6,5.1,1.7c1.3,1.2,1.9,2.7,1.9,4.7c0,1.3-0.3,2.5-1,3.5
		c-0.7,1-1.6,1.7-2.7,2.2c-1.1,0.5-2.8,0.7-4.9,0.7h-2.4v9.8H334.9z M341.4,51.9h-3.3v7h3.5c1.3,0,2.3-0.3,3-0.9
		c0.7-0.6,1.1-1.5,1.1-2.7C345.7,53,344.3,51.9,341.4,51.9z"/>
	<path class="st0" d="M365.5,48.7c3.5,0,6.4,1.1,8.7,3.3c2.3,2.2,3.5,5,3.5,8.3s-1.2,6.1-3.5,8.2c-2.3,2.2-5.3,3.3-8.8,3.3
		c-3.4,0-6.2-1.1-8.5-3.3c-2.3-2.2-3.4-4.9-3.4-8.2c0-3.4,1.1-6.1,3.4-8.4C359.2,49.8,362,48.7,365.5,48.7z M365.7,51.8
		c-2.6,0-4.7,0.8-6.4,2.4c-1.7,1.6-2.5,3.7-2.5,6.2c0,2.4,0.8,4.5,2.5,6.1c1.7,1.6,3.7,2.4,6.3,2.4c2.5,0,4.6-0.8,6.3-2.5
		c1.7-1.6,2.5-3.7,2.5-6.1c0-2.4-0.8-4.4-2.5-6C370.2,52.6,368.1,51.8,365.7,51.8z"/>
	<path class="st0" d="M384.2,71.5V49h5.6c2.3,0,4.1,0.6,5.4,1.7c1.3,1.1,2,2.7,2,4.6c0,1.3-0.3,2.4-1,3.4c-0.7,1-1.6,1.7-2.8,2.1
		c0.7,0.5,1.4,1.1,2.1,1.9c0.7,0.8,1.7,2.2,2.9,4.3c0.8,1.3,1.4,2.2,1.9,2.9l1.2,1.6h-3.8l-1-1.5c0-0.1-0.1-0.1-0.2-0.3l-0.6-0.9
		l-1-1.6l-1.1-1.8c-0.7-0.9-1.3-1.7-1.8-2.2c-0.6-0.5-1.1-0.9-1.5-1.2c-0.4-0.2-1.2-0.4-2.3-0.4h-0.8v9.8H384.2z M388.4,51.8h-1v7.1
		h1.2c1.6,0,2.8-0.1,3.4-0.4c0.6-0.3,1.1-0.7,1.4-1.3c0.3-0.6,0.5-1.2,0.5-1.9c0-0.7-0.2-1.4-0.6-1.9c-0.4-0.6-0.9-1-1.6-1.2
		C391.1,51.9,389.9,51.8,388.4,51.8z"/>
	<path class="st0" d="M403,49h18.8v2.9H414v19.7h-3.2V51.9H403V49z"/>
	<path class="st0" d="M433,62.1l-2.5-1.5c-1.5-0.9-2.6-1.9-3.3-2.8c-0.6-0.9-1-2-1-3.1c0-1.8,0.6-3.2,1.8-4.3
		c1.2-1.1,2.8-1.7,4.8-1.7c1.9,0,3.6,0.5,5.2,1.6V54c-1.6-1.6-3.4-2.3-5.2-2.3c-1.1,0-1.9,0.2-2.6,0.7c-0.7,0.5-1,1.1-1,1.9
		c0,0.7,0.2,1.3,0.7,1.9c0.5,0.6,1.3,1.2,2.4,1.9l2.5,1.5c2.7,1.6,4.1,3.7,4.1,6.3c0,1.8-0.6,3.3-1.8,4.4c-1.2,1.1-2.8,1.7-4.7,1.7
		c-2.2,0-4.3-0.7-6.1-2.1v-4.1c1.7,2.2,3.8,3.3,6,3.3c1,0,1.9-0.3,2.5-0.8c0.7-0.6,1-1.3,1-2.1C436,64.6,435,63.3,433,62.1z"/>
</g>
</svg>
