<?xml version="1.0" encoding="UTF-8"?>
<svg width="143px" height="38px" viewBox="0 0 143 38" version="1.1" xmlns="http://www.w3.org/2000/svg" xmlns:xlink="http://www.w3.org/1999/xlink">
    <!-- Generator: Sketch 57.1 (83088) - https://sketch.com -->
    <title>Hindawi - Logo - Inline</title>
    <desc>Created with Sketch.</desc>
    <defs>
        <polygon id="path-1" points="0.485944479 0.845 37.6194 0.845 37.6194 37.9998723 0.485944479 37.9998723"></polygon>
        <polygon id="path-3" points="0 38.1549 142.578 38.1549 142.578 0.9999 0 0.9999"></polygon>
    </defs>
    <g id="Symbols" stroke="none" stroke-width="1" fill="none" fill-rule="evenodd">
        <g id="Navigation/Desktop/Primary-Nav" transform="translate(-20.000000, -17.000000)">
            <g id="Hindawi---Logo---Inline" transform="translate(20.000000, 16.000000)">
                <g id="Group-19">
                    <path d="M2.26289952,22.8844 C2.26289952,25.4104 3.7869,28.2564 6.8119,31.2814 C9.8359,34.3074 12.6779,35.8324 15.2049,35.8314005 L15.2069,35.8314005 C18.0199,35.8324 20.5409,34.1734 23.0119,31.4884 C19.4049,33.3624 15.5079,32.9864 10.3099,27.7764 C5.1549,22.6084 4.7739,18.7274 6.6299,15.1414 C3.8369,17.6344 2.2619,20.0774 2.26289952,22.8844" id="Fill-1" fill="#004B59"></path>
                    <path d="M48.3562,16.2701 C48.3562,13.7451 46.8332,10.8971 43.8072,7.8721 C40.7842,4.8481 37.9412,3.3221 35.4142,3.32309951 L35.4122,3.32309951 C32.5992,3.3221 30.0782,4.9811 27.6062,7.6651 C31.2142,5.7911 35.1112,6.1671 40.3082,11.3761 C45.4642,16.5471 45.8452,20.4271 43.9902,24.0141 C46.7842,21.5201 48.3562,19.0781 48.3562,16.2701" id="Fill-3" fill="#3C671D"></path>
                    <g id="Group-7" transform="translate(13.000000, 0.154900)">
                        <mask id="mask-2" fill="white">
                            <use xlink:href="#path-1"></use>
                        </mask>
                        <g id="Clip-6"></g>
                        <path d="M29.5154,25.3701 C23.8614,31.0241 19.5844,34.1621 11.9664,26.5451 C4.3204,18.8991 7.4594,14.6221 13.1134,8.9661 C16.2134,5.8661 19.0524,3.2981 22.4124,3.30009796 L22.4144,3.30009796 C24.9414,3.2981 27.6384,4.7691 30.6624,7.7941 C33.6874,10.8191 35.1844003,13.5431 35.1844003,16.0701 C35.1854,19.4301 32.6174,22.2691 29.5154,25.3701 M31.2214,7.2351 C20.5044,-3.4809 12.9064,1.2271 6.8874,7.2471 C0.8684,13.2681 -3.8386,20.8661 6.8734,31.5821 L6.8994,31.6111 C17.6164,42.3251 25.2164,37.6171 31.2394,31.5991 C35.5914,27.2421 37.6194,23.4041 37.6194,19.5211 C37.6194,15.5591 35.5074,11.5221 31.2214,7.2351" id="Fill-5" fill="#63A431" mask="url(#mask-2)"></path>
                    </g>
                    <path d="M21.2551,33.0494 C19.3161,34.6344 17.3691,35.6994 15.2081,35.6994 L15.2071,35.6994 C12.6801,35.6994 9.9821,34.2294 6.9591,31.2034 C3.9321,28.1794 2.4351,25.4554 2.4351,22.9304 C2.4351,19.5704 5.0031,16.7304 8.1051,13.6294 C13.7591,7.9744 18.0351,4.8374 25.6541,12.4544 C32.3841,19.1844 30.7561,23.3044 26.4131,28.0514 C28.2751,29.6674 29.9351,30.6014 31.4721,30.9944 C37.1151,25.0954 41.0161,17.6904 30.7461,7.4174 L30.7211,7.3884 C20.0031,-3.3246 12.4031,1.3834 6.3841,7.4014 C2.0271,11.7574 9.96450552e-05,15.5954 9.96450552e-05,19.4804 C-0.0009,23.4404 2.1111,27.4764 6.3981,31.7654 C14.1691,39.5364 20.2991,39.1934 25.3771,36.1244 C24.0581,35.3544 22.6841,34.3384 21.2551,33.0494" id="Fill-8" fill="#007890"></path>
                    <polygon id="Fill-10" fill="#59595B" points="71.3972 11.9772 71.3972 18.5922 60.3652 18.5922 60.3652 11.9772 58.2102 11.9772 58.2102 27.0472 60.3672 27.0472 60.3672 20.4332 71.3982 20.4332 71.3982 27.0472 73.5562 27.0472 73.5562 11.9772"></polygon>
                    <mask id="mask-4" fill="white">
                        <use xlink:href="#path-3"></use>
                    </mask>
                    <g id="Clip-13"></g>
                    <path d="M76.429,27.0479 L78.378,27.0479 L78.378,15.7309 L76.429,15.7309 L76.429,27.0479 Z M76.429,14.0669 L78.378,14.0669 L78.378,11.9769 L76.429,11.9769 L76.429,14.0669 Z" id="Fill-12" fill="#59595B" mask="url(#mask-4)"></path>
                    <path d="M86.2614,15.5904 C84.6724,15.5904 83.5324,15.8534 82.8324,16.8044 L82.8324,15.7314 L80.9914,15.7314 L80.9914,27.0484 L82.9384,27.0484 L82.9384,19.8094 C82.9384,17.8944 83.5314,17.2614 87.0494,17.2614 L87.4374,17.2614 C90.2944,17.2614 90.5154,18.0684 90.5154,19.2144 L90.5154,27.0484 L92.4604,27.0484 L92.4604,18.8444 C92.4604,17.6274 91.9514,15.5924 88.5234,15.5924 L86.2614,15.5904 Z" id="Fill-14" fill="#59595B" mask="url(#mask-4)"></path>
                    <path d="M96.404,23.1822 L96.404,19.4932 C96.404,17.5782 97.296,17.2602 99.293,17.2602 L101.325,17.2602 C103.354,17.2602 104.385,17.6072 104.385,19.5282 L104.385,23.1662 C104.385,23.9832 104.202,24.5332 103.811,24.9072 C103.378,25.3232 102.67,25.5232 101.64,25.5232 L99.182,25.5232 C96.82,25.5222 96.404,24.7662 96.404,23.1822 L96.404,23.1822 Z M104.385,11.9742 L104.385,16.3892 C103.89,15.8352 103.046,15.5882 101.711,15.5882 L99.409,15.5882 C95.753,15.5882 94.456,16.6612 94.456,19.6852 L94.456,23.1932 C94.456,26.7102 96.919,27.1832 99.323,27.1832 L101.429,27.1832 C102.865,27.1832 103.894,26.7982 104.49,26.0852 L104.49,27.0432 L106.333,27.0432 L106.333,11.9732 L104.385,11.9742 Z" id="Fill-15" fill="#59595B" mask="url(#mask-4)"></path>
                    <path d="M110.2048,24.3199 L110.2048,22.8119 C110.2048,22.2269 110.3648,22.0149 110.6068,21.8819 C110.9308,21.7029 111.4868,21.6269 112.4768,21.6269 L114.7928,21.6269 C117.3218,21.6269 117.9758,21.8679 117.9758,22.7939 L117.9758,24.4239 C117.9758,24.8939 117.7728,25.1359 117.2618,25.2949 C116.6218,25.4919 115.5118,25.5229 114.4048,25.5229 L112.4048,25.5229 C110.3088,25.5209 110.2048,25.0879 110.2048,24.3199 L110.2048,24.3199 Z M112.6178,15.6089 C109.8098,15.6089 108.6618,16.3389 108.6618,18.1249 L108.6618,18.7819 L110.6088,18.7819 L110.6088,18.2479 C110.6088,17.7129 110.7668,17.2719 112.6548,17.2719 L114.8658,17.2719 C117.2388,17.2719 117.9768,17.4989 117.9768,18.8789 L117.9768,20.7029 C117.3718,20.0999 116.5168,19.9589 114.9708,19.9589 L112.5518,19.9589 C110.0378,19.9589 108.2628,20.1379 108.2628,22.4569 L108.2628,24.2809 C108.2628,25.2629 108.4658,25.9379 108.9048,26.4049 C109.4008,26.9279 110.2018,27.1819 111.3578,27.1819 L114.9698,27.1819 C116.7208,27.1819 117.4968,27.0509 117.9758,26.5679 L117.9758,27.0439 L119.9228,27.0439 L119.9228,18.9119 C119.9228,15.8579 117.4948,15.6019 115.0048,15.6019 L112.6208,15.6019 L112.6178,15.6089 Z" id="Fill-16" fill="#59595B" mask="url(#mask-4)"></path>
                    <path d="M137.362,15.7301 C137.362,15.7301 134.422,24.1681 134.033,25.0251 C133.711,24.1451 131.327,15.7301 131.327,15.7301 L128.844,15.7301 C128.844,15.7301 126.461,24.1451 126.136,25.0251 C125.749,24.1681 122.812,15.7301 122.812,15.7301 L120.729,15.7301 L125.002,27.0471 L127.382,27.0471 C127.382,27.0471 129.729,18.7671 130.085,17.8091 C130.441,18.7671 132.79,27.0471 132.79,27.0471 L135.172,27.0471 L139.443,15.7301 L137.362,15.7301 Z" id="Fill-17" fill="#59595B" mask="url(#mask-4)"></path>
                    <path d="M140.634,27.0479 L142.578,27.0479 L142.578,15.7309 L140.634,15.7309 L140.634,27.0479 Z M140.634,14.0669 L142.578,14.0669 L142.578,11.9769 L140.634,11.9769 L140.634,14.0669 Z" id="Fill-18" fill="#59595B" mask="url(#mask-4)"></path>
                </g>
            </g>
        </g>
    </g>
</svg>