<?xml version="1.0" encoding="utf-8"?>
<!-- Generator: Adobe Illustrator 19.2.1, SVG Export Plug-In . SVG Version: 6.00 Build 0)  -->
<svg version="1.1" id="Layer_1" xmlns="http://www.w3.org/2000/svg" xmlns:xlink="http://www.w3.org/1999/xlink" x="0px" y="0px"
	 viewBox="0 0 300 89.1" style="enable-background:new 0 0 300 89.1;" xml:space="preserve">
<style type="text/css">
	.st0{fill:#FFFFFF;}
</style>
<path class="st0" d="M17.4,23c-0.2,1.6-0.6,3.2-0.6,4.7c-0.1,14.2,0,28.4,0.7,42.5c0.2,3.3,0.4,6.5,1,9.8c0.2,0.8,0.5,1.3,1.4,1.5
	c2.2,0.5,4.5,1.2,6.7,1.7c0.6,0.1,0.7,0.4,0.6,0.9c-0.1,1-0.3,2-0.3,3c0,0.5-0.2,0.7-0.8,0.7c-8.3,0-16.6,0-24.9,0
	c-1,0-1.3-0.4-1.1-1.4c0.1-0.8,0.3-1.6,0.4-2.3c0-0.6,0.4-0.8,0.9-0.9c2.9-0.4,5.6-1.5,7.9-3.2c0.5-0.4,0.7-0.7,0.8-1.3
	c1.1-8.4,1.2-16.8,1.1-25.2C11.1,42.3,11,31,10.9,19.8c0-1.9-0.3-3.7-0.4-5.5c-0.3-3.6-2.4-5.6-5.5-7C4,6.8,3,6.4,1.9,6.2
	C1.5,6,1.2,5.9,1.3,5.4c0.1-0.9,0.1-1.9,0.2-2.8c0-0.5,0.2-0.7,0.7-0.7C7,2,11.9,2,16.7,2.1c0.4,0,0.6,0.2,0.9,0.5
	C22.7,9.9,27.8,17.1,33,24.3c10.1,14.3,20.2,28.6,30.4,42.9c0.2,0.3,0.3,0.8,0.8,0.6c0.5-0.2,0.7-0.5,0.7-1
	c0.1-15.1,0.4-30.2,0.2-45.4c-0.1-3.5-0.3-7-0.9-10.5c-0.2-1-0.6-1.5-1.4-2c-2.3-1.2-4.8-2.1-7.3-2.6c-0.6-0.1-0.8-0.4-0.8-0.9
	c0-0.8,0-1.7-0.1-2.5c-0.1-0.7,0.1-0.9,0.9-0.9c3.8,0,7.5,0,11.3-0.1c4.6,0,9.1-0.1,13.7-0.1c1.2,0,1.2,0,1.2,1.2
	c-0.1,0.8-0.1,1.7-0.1,2.5c0,0.7-0.2,1-1,1c-1.7,0-3.4,0.3-5,1c-1.7,0.8-2.9,2-3.5,3.9c-0.7,2.4-0.9,4.8-1,7.3
	c-0.2,10.8-0.1,21.6-0.1,32.4c0,6.4,0,12.9,0.1,19.3c0,3.9,0.4,7.8,0.1,11.6c-0.1,1.7-0.3,3.3-1,4.9c-0.8,1.7-1.7,2.1-3.4,1.3
	c-2.4-1.1-4.1-2.9-5.6-5c-1.2-1.7-2.2-3.4-3.2-5.2c-2.9-5.1-6.4-9.7-9.7-14.4c-7.9-11.2-16-22.3-24.3-33.2c-1.6-2.1-3.3-4.1-5-6.2
	c-0.4-0.4-0.8-0.8-1.1-1.3C17.5,22.9,17.4,23,17.4,23z"/>
<path class="st0" d="M161.5,1.4c5.8-0.2,11.6-0.4,17.4-0.2c4,0.1,7.3,1.6,10.4,3.7c5.4,3.7,8.3,8.8,8.9,15.4c0.3,4,0.2,7.9-0.7,11.8
	c-1,4.2-3.3,7.4-6.8,9.8c-2.3,1.5-4.5,3.1-6.8,4.6c-0.8,0.5-0.9,0.9-0.4,1.7c4.6,8.6,9.2,17.2,14.4,25.4c2.1,3.4,4.2,6.8,7.1,9.5
	c1.1,1,2.2,2,3.9,1.9c0.4,0,0.4,0.2,0.4,0.5c0,0.7-0.1,1.3,0,2c0.1,0.9-0.3,1.1-1.1,1.3c-4.9,1.1-9.1-0.2-12.8-3.3
	c-3.2-2.6-5.6-6-7.7-9.5c-2.8-4.6-5-9.5-7.5-14.4c-1.1-2.1-2.2-4.2-3.4-6.2c-2.2-3.8-5.7-5.5-9.9-6.2c-1.3-0.2-2.7-0.2-4-0.4
	c-0.5,0-0.7,0-0.7,0.6c-0.1,8.4-0.8,16.7,0.1,25.1c0.2,2.1,0.7,4.3,1.4,6.3c0.3,0.7,0.6,1.1,1.4,1.2c2.2,0.4,4.5,0.9,6.7,1.3
	c0.7,0.1,0.8,0.4,0.8,1c-0.1,0.9,0,1.9,0,2.8c0,0.6-0.1,0.8-0.7,0.8c-6.6,0-13.2,0.1-19.7,0.2c-3.4,0-6.7,0-10.1,0.1
	c-0.6,0-0.8-0.1-0.8-0.7c0-1.3-0.1-2.6-0.2-3.8c-0.1-0.7,0.1-0.9,0.8-0.9c2.2,0,4.4-0.1,6.6-0.7c1.6-0.4,2.6-1.2,2.7-3.1
	c0.3-3.6,0.5-7.3,0.6-10.9c0.4-16.5,0.5-33,0-49.5c-0.1-3-0.2-5.9-0.6-8.9c-0.2-1.1-0.8-1.8-1.7-2.3c-2.2-1-4.6-1.1-7-0.9
	c-0.9,0.1-1.3-0.1-1.2-1.1c0.1-0.9,0.1-1.8,0.1-2.6c0-0.6,0.2-0.8,0.8-0.8c5.4-0.1,10.7-0.3,16.1-0.4C159.4,1.4,160.5,1.4,161.5,1.4
	z M162,31c0.1,4.2,0.2,8.4,0.3,12.6c0,0.6,0.2,0.8,0.9,0.8c0.6,0,1.2,0,1.8,0c4.1,0.1,8.1-0.1,12.1-1.2c5.3-1.5,8.7-4.8,10.1-10.1
	c1.6-6.2,1.3-12.4-1-18.3c-1.9-4.7-5.3-7.7-10.4-8.7c-3.3-0.6-6.5-0.2-9.6,0.6c-0.6,0.1-0.9,0.4-1.1,0.9c-1.1,2.2-1.7,4.5-2.1,6.9
	C161.8,20,161.9,25.5,162,31z"/>
<path class="st0" d="M108.5,88.4c-4.2,0-7.9-0.5-11.5-1.5c-2.9-0.8-5.9-0.8-8.9-0.8c-0.6,0-0.8-0.2-0.8-0.7
	c-0.7-6.4-1.3-12.9-2-19.3c-0.1-0.9,0.2-1,1-0.9c0.7,0.1,1.4,0.1,2.1,0.1c0.7,0,0.9,0.2,1.1,0.9c1,4.1,2.8,7.7,5.8,10.8
	c3.5,3.7,7.8,6.1,12.9,6.6c8.4,0.9,14.7-3.8,16.3-12.1c0.7-3.3,0.7-6.6,0-9.9c-1-4.7-4.2-7.8-8-10.3c-3.5-2.3-7.3-3.9-11-5.7
	c-2.9-1.4-5.8-2.9-8.5-4.7c-6.9-4.6-9.7-11-8.6-19.1c0.3-2.5,0.9-4.9,1.6-7.3c0.9-3.5,3-6.3,5.5-8.8c3.1-3.2,6.9-4.4,11.1-5.1
	c3.6-0.7,7.3-0.4,10.8,0.3c3.9,0.7,7.7,1.9,11.4,3.4c0.4,0.2,0.7,0.3,0.7,0.8c0.3,4.3,0.8,8.6,1.6,12.8c0.1,0.5,0.1,1,0,1.5
	c-0.2,1.6-0.5,2-2.2,2.3c-1.6,0.3-1.6,0.3-2.1-1.4c-1.2-4.4-3.2-8.4-6.7-11.5c-4.3-3.7-9.2-5.3-14.8-3.3c-3.7,1.3-6.1,4.1-7.5,7.8
	c-1.2,3.1-1.5,6.2-1.1,9.5c0.5,3.6,2.6,6.1,5.4,8.2c3.3,2.5,7.1,4.2,10.8,5.9c4,1.9,8,3.6,11.7,6c3.7,2.4,6.8,5.3,8.6,9.4
	c0.9,2.1,1.3,4.3,1.5,6.5c0.3,5.2-0.1,10.3-2.1,15.2c-3.1,7.5-8.9,11.8-16.7,13.6C113.3,88.2,110.7,88.4,108.5,88.4z"/>
<path class="st0" d="M216.6,20.5h3.9l5.8,12.9h0.1V20.5h3v17.4h-3.9l-5.8-13.3h-0.1v13.3h-3V20.5z"/>
<path class="st0" d="M232.4,28.8c0-3,1.5-4.3,5.1-4.3c4.6,0,4.6,2.4,4.6,3.7v7.3c0,0.5,0,1,0.7,1c0.3,0,0.5,0,0.6-0.1v1.5
	c-0.2,0-0.8,0.1-1.4,0.1c-0.9,0-2,0-2.1-1.7h-0.1c-0.8,1.2-2.2,1.9-3.6,1.9c-2.8,0-4.1-1.5-4.1-3.8c0-1.8,0.9-3.1,2.8-3.6l3.2-0.8
	c1.7-0.5,1.7-0.9,1.7-2c0-1.2-0.8-1.9-2.4-1.9c-2.6,0-2.6,2.1-2.6,2.6v0.1L232.4,28.8L232.4,28.8z M239.7,30.8c-0.9,0.8-3,1-4,1.5
	c-0.8,0.4-1.2,0.9-1.2,2.1c0,1.3,0.5,2.2,2.1,2.2c1.5,0,3-1.1,3-2.5L239.7,30.8L239.7,30.8z"/>
<path class="st0" d="M246.4,21h2.4v3.8h2.6v1.6h-2.6v8.4c0,1,0.3,1.5,1.5,1.5c0.5,0,0.8,0,1-0.1v1.7c-0.3,0-0.9,0.1-1.9,0.1
	c-2.4,0-3-0.9-3-2.6v-9h-2.2v-1.6h2.2L246.4,21L246.4,21z"/>
<path class="st0" d="M253.3,20.5h2.4v2.3h-2.4V20.5z M253.3,24.8h2.4v13h-2.4V24.8z"/>
<path class="st0" d="M263.7,24.5c4.4,0,5.4,3.2,5.4,6.9s-1.1,6.9-5.4,6.9c-4.4,0-5.4-3.2-5.4-6.9S259.4,24.5,263.7,24.5z
	 M266.7,31.4c0-2.8-0.5-5.3-3-5.3c-2.4,0-2.9,2.4-2.9,5.3s0.5,5.3,2.9,5.3C266.2,36.6,266.7,34.2,266.7,31.4z"/>
<path class="st0" d="M271.7,24.8h2.3v1.5h0.1c0.6-1.2,2.2-1.9,3.7-1.9c4,0,4,2.6,4,4.1v9.2h-2.4v-9c0-1-0.1-2.6-2.2-2.6
	c-1.3,0-3,0.7-3,2.6v9h-2.4L271.7,24.8L271.7,24.8z"/>
<path class="st0" d="M284.5,28.8c0-3,1.5-4.3,5.1-4.3c4.6,0,4.6,2.4,4.6,3.7v7.3c0,0.5,0,1,0.7,1c0.3,0,0.5,0,0.6-0.1v1.5
	c-0.2,0-0.8,0.1-1.4,0.1c-0.9,0-2,0-2.1-1.7h-0.1c-0.8,1.2-2.2,1.9-3.6,1.9c-2.8,0-4.1-1.5-4.1-3.8c0-1.8,0.9-3.1,2.8-3.6l3.2-0.8
	c1.7-0.5,1.7-0.9,1.7-2c0-1.2-0.8-1.9-2.4-1.9c-2.6,0-2.6,2.1-2.6,2.6v0.1L284.5,28.8L284.5,28.8z M291.8,30.8c-0.9,0.8-3,1-4,1.5
	c-0.8,0.4-1.2,0.9-1.2,2.1c0,1.3,0.5,2.2,2.1,2.2c1.5,0,3-1.1,3-2.5L291.8,30.8L291.8,30.8z"/>
<path class="st0" d="M297.6,20.5h2.4v17.4h-2.4V20.5z"/>
<path class="st0" d="M219.1,57.9v0.4c0,2.1,1.1,3.2,3.3,3.2c2,0,3-1.2,3-2.5c0-1.8-1.1-2.6-2.9-3.1l-2.2-0.7c-2.9-1-4.2-2.3-4.2-4.8
	c0-3.2,2.5-4.9,6.2-4.9c5.2,0,5.7,2.8,5.7,4.6v0.4h-3.2v-0.4c0-1.6-0.8-2.5-2.8-2.5c-1.4,0-2.7,0.7-2.7,2.5c0,1.5,0.9,2.2,3,2.9
	l2.2,0.7c2.8,0.9,4.1,2.2,4.1,4.6c0,3.7-2.6,5.2-6.6,5.2c-5,0-6.1-2.9-6.1-5.3v-0.4L219.1,57.9L219.1,57.9z"/>
<path class="st0" d="M238.4,54.2c0-1.3-0.6-2.7-2.4-2.7c-1.5,0-3,0.6-3,5.4c0,1.7,0,5.1,2.9,5.1c2,0,2.5-1.8,2.5-3.3h2.4
	c0,2.1-1.2,4.9-5,4.9c-3.7,0-5.2-2.2-5.2-6.7c0-3.3,0.7-7,5.4-7c4.1,0,4.8,2.8,4.8,4.3C240.8,54.2,238.4,54.2,238.4,54.2z"/>
<path class="st0" d="M243.5,45.9h2.4v2.3h-2.4V45.9z M243.5,50.3h2.4v13h-2.4V50.3z"/>
<path class="st0" d="M251.2,57c0,2,0,5,2.9,5c2.3,0,2.6-2,2.6-3h2.4c0,1.4-1,4.6-5.1,4.6c-3.7,0-5.2-2.2-5.2-6.7c0-3.3,0.7-7,5.4-7
	c4.6,0,5,3.5,5,6.3V57C259.2,57,251.2,57,251.2,57z M256.7,55.4v-0.7c0-1.5-0.5-3.2-2.6-3.2c-2.5,0-2.8,2.6-2.8,3.4v0.5
	C251.3,55.4,256.7,55.4,256.7,55.4z"/>
<path class="st0" d="M261.9,50.3h2.3v1.5h0.1c0.6-1.2,2.2-1.9,3.7-1.9c4,0,4,2.6,4,4.1v9.2h-2.4v-9c0-1-0.1-2.6-2.2-2.6
	c-1.3,0-3,0.7-3,2.6v9h-2.4L261.9,50.3L261.9,50.3z"/>
<path class="st0" d="M282.3,54.2c0-1.3-0.6-2.7-2.4-2.7c-1.5,0-3,0.6-3,5.4c0,1.7,0,5.1,2.9,5.1c2,0,2.5-1.8,2.5-3.3h2.4
	c0,2.1-1.2,4.9-5,4.9c-3.7,0-5.2-2.2-5.2-6.7c0-3.3,0.7-7,5.4-7c4.1,0,4.8,2.8,4.8,4.3C284.6,54.2,282.3,54.2,282.3,54.2z"/>
<path class="st0" d="M289.2,57c0,2,0,5,2.9,5c2.3,0,2.6-2,2.6-3h2.4c0,1.4-1,4.6-5.1,4.6c-3.7,0-5.2-2.2-5.2-6.7c0-3.3,0.7-7,5.4-7
	c4.6,0,5,3.5,5,6.3V57C297.1,57,289.2,57,289.2,57z M294.7,55.4v-0.7c0-1.5-0.5-3.2-2.6-3.2c-2.5,0-2.8,2.6-2.8,3.4v0.5
	C289.3,55.4,294.7,55.4,294.7,55.4z"/>
<path class="st0" d="M216.6,71.4h7.1c2.8,0,5.1,1.2,5.1,4.5c0,2.2-1.2,4-3.4,4.3v0c2,0.2,3,1.1,3.2,3.6c0,1.1,0.1,2.5,0.1,3.5
	c0.1,0.9,0.5,1.3,1,1.5h-3.6c-0.3-0.3-0.4-0.9-0.5-1.5c-0.1-1-0.1-2-0.1-3.3c-0.1-1.9-0.7-2.7-2.9-2.7h-2.6v7.5h-3.2L216.6,71.4
	L216.6,71.4z M222.4,79.1c2.1,0,3.2-1.1,3.2-2.8c0-1.8-0.9-2.8-3-2.8h-2.7v5.6H222.4z"/>
<path class="st0" d="M233.7,82.5c0,2,0,5,2.9,5c2.3,0,2.6-2,2.6-3h2.4c0,1.4-1,4.6-5.1,4.6c-3.7,0-5.2-2.2-5.2-6.7
	c0-3.3,0.7-7,5.4-7c4.6,0,5,3.5,5,6.3v0.8C241.7,82.5,233.7,82.5,233.7,82.5z M239.2,80.9v-0.7c0-1.5-0.5-3.2-2.6-3.2
	c-2.5,0-2.8,2.6-2.8,3.4v0.5H239.2z"/>
<path class="st0" d="M243.1,75.7h2.6l2.8,10.5h0.1l2.8-10.5h2.6l-4.1,13h-2.7L243.1,75.7z"/>
<path class="st0" d="M256.1,71.4h2.4v2.3h-2.4V71.4z M256.1,75.7h2.4v13h-2.4V75.7z"/>
<path class="st0" d="M263.8,82.5c0,2,0,5,2.9,5c2.3,0,2.6-2,2.6-3h2.4c0,1.4-1,4.6-5.1,4.6c-3.7,0-5.2-2.2-5.2-6.7
	c0-3.3,0.7-7,5.4-7c4.6,0,5,3.5,5,6.3v0.8C271.8,82.5,263.8,82.5,263.8,82.5z M269.3,80.9v-0.7c0-1.5-0.5-3.2-2.6-3.2
	c-2.5,0-2.8,2.6-2.8,3.4v0.5H269.3z"/>
<path class="st0" d="M273.2,75.7h2.5l2.4,10.7h0.1l2.6-10.7h2.8l2.5,10.7h0.1l2.3-10.7h2.5l-3.6,13h-2.6l-2.6-10.7H282l-2.5,10.7
	h-2.8L273.2,75.7z"/>
</svg>
