<?xml version="1.0" encoding="utf-8"?>
<!-- Generator: Adobe Illustrator 19.1.0, SVG Export Plug-In . SVG Version: 6.00 Build 0)  -->
<svg version="1.1" id="Layer_1" xmlns="http://www.w3.org/2000/svg" xmlns:xlink="http://www.w3.org/1999/xlink" x="0px" y="0px"
	 viewBox="0 14.7 300 49.8" style="enable-background:new 0 14.7 300 49.8;" xml:space="preserve">
<style type="text/css">
	.st0{fill:#354550;}
</style>
<g>
	<path d="M6.8,14.7c1.6,0,3,0.5,4.1,1.6c1.1,1.1,1.7,2.4,1.7,4c0,1.6-0.6,2.9-1.7,4C9.8,25.4,8.4,26,6.8,26c-1.6,0-3-0.5-4.1-1.6
		c-1.1-1.1-1.7-2.4-1.7-4c0-1.6,0.6-2.9,1.7-4C3.8,15.3,5.2,14.7,6.8,14.7z M6.8,25.2c1.4,0,2.5-0.5,3.5-1.4
		c0.9-0.9,1.4-2.1,1.4-3.4c0-1.4-0.5-2.5-1.4-3.4c-0.9-0.9-2.1-1.4-3.5-1.4c-1.4,0-2.5,0.5-3.5,1.4c-0.9,0.9-1.4,2.1-1.4,3.4
		c0,1.4,0.5,2.5,1.4,3.4C4.3,24.7,5.5,25.2,6.8,25.2z"/>
	<path d="M30.8,19.6l4.2-4.7h1.1l-4.7,5.3l5,5.6h-1.1l-4.4-5l-4.4,5h-1.1l5-5.6l-4.7-5.3h1.1L30.8,19.6z"/>
	<path d="M56,14.9v0.7h-4.8v4.2h4.3v0.7h-4.3v5.4h-0.8v-11H56z"/>
	<path d="M75.4,14.7c1.6,0,3,0.5,4.1,1.6c1.1,1.1,1.7,2.4,1.7,4c0,1.6-0.6,2.9-1.7,4C78.4,25.4,77,26,75.4,26c-1.6,0-3-0.5-4.1-1.6
		c-1.1-1.1-1.7-2.4-1.7-4c0-1.6,0.6-2.9,1.7-4C72.4,15.3,73.8,14.7,75.4,14.7z M75.4,25.2c1.4,0,2.5-0.5,3.5-1.4
		c0.9-0.9,1.4-2.1,1.4-3.4c0-1.4-0.5-2.5-1.4-3.4c-0.9-0.9-2.1-1.4-3.5-1.4c-1.4,0-2.5,0.5-3.5,1.4c-0.9,0.9-1.4,2.1-1.4,3.4
		c0,1.4,0.5,2.5,1.4,3.4C72.9,24.7,74.1,25.2,75.4,25.2z"/>
	<path d="M96,14.9h2.8c1.2,0,2.1,0.3,2.7,0.8c0.6,0.5,0.9,1.2,0.9,2.1c0,1.3-0.7,2.2-2.1,2.7c0.4,0.2,0.8,0.7,1.5,1.7l2.5,3.8h-1
		l-1.9-3c-0.6-1-1.1-1.6-1.5-1.9c-0.4-0.2-0.9-0.4-1.6-0.4h-1.5v5.3H96V14.9z M96.8,15.6v4.3h1.8c0.9,0,1.6-0.2,2.1-0.6
		c0.5-0.4,0.7-0.9,0.7-1.6c0-0.7-0.2-1.2-0.7-1.6c-0.5-0.4-1.2-0.6-2.1-0.6H96.8z"/>
	<path d="M117.9,14.9h3.8c1.9,0,3.4,0.5,4.4,1.5c1,1,1.5,2.3,1.5,4c0,1.6-0.5,2.9-1.5,3.9c-1,1-2.4,1.5-4.3,1.5h-4V14.9z
		 M118.7,15.6v9.5h3.1c1.4,0,2.6-0.4,3.5-1.3c0.9-0.9,1.4-2,1.4-3.5c0-1.4-0.5-2.6-1.4-3.4c-0.9-0.9-2.1-1.3-3.6-1.3H118.7z"/>
	<path d="M164.6,20l4.2-5.1h0.9v11h-0.9v-9.7l-4.2,5.1l-4.2-5.1v9.7h-0.8v-11h0.8L164.6,20z"/>
	<path d="M190.8,14.9v0.7h-5.1V20h5v0.7h-5v4.4h5.3v0.7h-6.1v-11H190.8z"/>
	<path d="M205.4,14.9h3.8c1.9,0,3.4,0.5,4.4,1.5c1,1,1.5,2.3,1.5,4c0,1.6-0.5,2.9-1.5,3.9c-1,1-2.4,1.5-4.3,1.5h-4V14.9z
		 M206.3,15.6v9.5h3.1c1.4,0,2.6-0.4,3.5-1.3c0.9-0.9,1.4-2,1.4-3.5c0-1.4-0.5-2.6-1.4-3.4c-0.9-0.9-2.1-1.3-3.6-1.3H206.3z"/>
	<path d="M230.8,14.9v11H230v-11H230.8z"/>
	<path d="M255.2,15.7v0.9c-1.3-0.7-2.6-1.1-3.9-1.1c-1.4,0-2.5,0.5-3.4,1.4c-0.9,0.9-1.4,2.1-1.4,3.5c0,1.4,0.5,2.6,1.4,3.5
		c0.9,0.9,2.1,1.4,3.5,1.4c1.2,0,2.5-0.4,3.9-1.1V25c-1.3,0.7-2.6,1-3.9,1c-1.7,0-3.1-0.5-4.2-1.6c-1.1-1.1-1.7-2.4-1.7-4
		c0-1.6,0.6-2.9,1.7-4c1.1-1.1,2.5-1.6,4.1-1.6C252.5,14.7,253.8,15.1,255.2,15.7z"/>
	<path d="M274.6,14.8l5.1,11h-0.9l-1.7-3.8h-5.4l-1.7,3.8h-0.9l5.1-11H274.6z M276.8,21.4l-2.4-5.2l-2.4,5.2H276.8z"/>
	<path d="M294.6,14.9v10.3h5.4v0.7h-6.3v-11H294.6z"/>
</g>
<g>
	<path class="st0" d="M24.7,57.9v4.3c-2.9,1.6-6.2,2.4-10,2.4c-3.1,0-5.7-0.6-7.8-1.8c-2.1-1.2-3.8-2.9-5.1-5.1
		c-1.2-2.2-1.9-4.5-1.9-7c0-4,1.4-7.4,4.3-10.1c2.8-2.7,6.4-4.1,10.5-4.1c2.9,0,6.1,0.8,9.6,2.3v4.2c-3.2-1.8-6.3-2.8-9.4-2.8
		c-3.1,0-5.8,1-7.8,3c-2.1,2-3.1,4.5-3.1,7.5c0,3,1,5.5,3.1,7.4c2,1.9,4.7,2.9,7.8,2.9C18.3,60.9,21.6,59.9,24.7,57.9z"/>
	<path class="st0" d="M42.5,36.6h2.8l12.3,27.6h-4l-3.7-8.1H38.2l-3.4,8.1h-4L42.5,36.6z M48.3,52.6l-4.4-9.9l-4.1,9.9H48.3z"/>
	<path class="st0" d="M70.6,52.7l-3-1.8c-1.9-1.1-3.2-2.3-4-3.4c-0.8-1.1-1.2-2.4-1.2-3.8c0-2.2,0.7-3.9,2.3-5.3
		c1.5-1.3,3.4-2,5.8-2c2.3,0,4.4,0.6,6.3,1.9v4.5c-2-1.9-4.1-2.9-6.4-2.9c-1.3,0-2.3,0.3-3.2,0.9c-0.8,0.6-1.2,1.4-1.2,2.3
		c0,0.8,0.3,1.6,0.9,2.3c0.6,0.7,1.6,1.5,2.9,2.3l3,1.8c3.3,2,5,4.5,5,7.6c0,2.2-0.7,4-2.2,5.4c-1.5,1.4-3.4,2.1-5.7,2.1
		c-2.7,0-5.2-0.8-7.4-2.5v-5c2.1,2.7,4.6,4,7.4,4c1.2,0,2.3-0.3,3.1-1c0.8-0.7,1.2-1.5,1.2-2.6C74.3,55.8,73,54.2,70.6,52.7z"/>
	<path class="st0" d="M85.5,36.8h15.6v3.5H89.4v8.4h11.2v3.5H89.4v8.5h12v3.5H85.5V36.8z"/>
	<path class="st0" d="M123.4,64.2V36.8h6.9c2.8,0,5,0.7,6.6,2.1c1.6,1.4,2.4,3.2,2.4,5.6c0,1.6-0.4,3-1.2,4.1
		c-0.8,1.2-1.9,2-3.4,2.6c0.9,0.6,1.7,1.4,2.6,2.4c0.8,1,2,2.7,3.5,5.2c1,1.6,1.7,2.7,2.3,3.5l1.5,2h-4.7l-1.2-1.8
		c0-0.1-0.1-0.2-0.2-0.3l-0.8-1.1l-1.2-2l-1.3-2.1c-0.8-1.1-1.6-2-2.2-2.7c-0.7-0.7-1.3-1.1-1.8-1.4c-0.5-0.3-1.5-0.4-2.7-0.4h-1
		v11.9H123.4z M128.5,40.1h-1.2v8.7h1.5c2,0,3.4-0.2,4.1-0.5c0.7-0.3,1.3-0.9,1.7-1.5c0.4-0.7,0.6-1.5,0.6-2.3
		c0-0.9-0.2-1.6-0.7-2.3c-0.5-0.7-1.1-1.2-1.9-1.5C131.8,40.3,130.4,40.1,128.5,40.1z"/>
	<path class="st0" d="M150.8,36.8h15.6v3.5h-11.6v8.4h11.2v3.5h-11.2v8.5h12v3.5h-15.9V36.8z"/>
	<path class="st0" d="M173.9,64.2V36.7h8.7c2.6,0,4.7,0.7,6.3,2.1c1.6,1.4,2.3,3.3,2.3,5.7c0,1.6-0.4,3-1.2,4.2
		c-0.8,1.2-1.9,2.1-3.3,2.7c-1.4,0.6-3.4,0.8-6,0.8h-2.9v11.9H173.9z M181.9,40.2h-4.1v8.6h4.3c1.6,0,2.8-0.4,3.7-1.1
		c0.9-0.8,1.3-1.8,1.3-3.2C187.1,41.6,185.4,40.2,181.9,40.2z"/>
	<path class="st0" d="M211.3,36.4c4.2,0,7.8,1.3,10.6,4c2.8,2.7,4.2,6.1,4.2,10.1s-1.4,7.4-4.3,10.1c-2.8,2.7-6.4,4-10.8,4
		c-4.1,0-7.6-1.3-10.3-4c-2.8-2.7-4.1-6-4.1-10c0-4.1,1.4-7.5,4.2-10.2C203.6,37.7,207.1,36.4,211.3,36.4z M211.5,40.1
		c-3.1,0-5.7,1-7.7,2.9c-2,2-3,4.5-3,7.5c0,3,1,5.4,3,7.4c2,2,4.6,2.9,7.6,2.9c3.1,0,5.6-1,7.7-3c2-2,3.1-4.5,3.1-7.5
		c0-2.9-1-5.4-3.1-7.3C217,41.1,214.5,40.1,211.5,40.1z"/>
	<path class="st0" d="M234.3,64.2V36.8h6.9c2.8,0,5,0.7,6.6,2.1c1.6,1.4,2.4,3.2,2.4,5.6c0,1.6-0.4,3-1.2,4.1
		c-0.8,1.2-1.9,2-3.4,2.6c0.9,0.6,1.7,1.4,2.6,2.4c0.8,1,2,2.7,3.5,5.2c1,1.6,1.7,2.7,2.3,3.5l1.5,2h-4.7l-1.2-1.8
		c0-0.1-0.1-0.2-0.2-0.3l-0.8-1.1l-1.2-2l-1.3-2.1c-0.8-1.1-1.6-2-2.2-2.7c-0.7-0.7-1.3-1.1-1.8-1.4c-0.5-0.3-1.5-0.4-2.7-0.4h-1
		v11.9H234.3z M239.4,40.1h-1.2v8.7h1.5c2,0,3.4-0.2,4.1-0.5c0.7-0.3,1.3-0.9,1.7-1.5c0.4-0.7,0.6-1.5,0.6-2.3
		c0-0.9-0.2-1.6-0.7-2.3c-0.5-0.7-1.1-1.2-1.9-1.5C242.7,40.3,241.3,40.1,239.4,40.1z"/>
	<path class="st0" d="M255.8,36.7h22.9v3.5h-9.6v24h-4v-24h-9.4V36.7z"/>
	<path class="st0" d="M292.4,52.7l-3-1.8c-1.9-1.1-3.2-2.3-4-3.4c-0.8-1.1-1.2-2.4-1.2-3.8c0-2.2,0.8-3.9,2.3-5.3
		c1.5-1.3,3.4-2,5.8-2c2.3,0,4.4,0.6,6.3,1.9v4.5c-2-1.9-4.1-2.9-6.4-2.9c-1.3,0-2.3,0.3-3.2,0.9c-0.8,0.6-1.2,1.4-1.2,2.3
		c0,0.8,0.3,1.6,0.9,2.3c0.6,0.7,1.6,1.5,2.9,2.3l3,1.8c3.3,2,5,4.5,5,7.6c0,2.2-0.7,4-2.2,5.4c-1.5,1.4-3.4,2.1-5.7,2.1
		c-2.7,0-5.2-0.8-7.4-2.5v-5c2.1,2.7,4.6,4,7.4,4c1.2,0,2.3-0.3,3.1-1c0.8-0.7,1.2-1.5,1.2-2.6C296,55.8,294.8,54.2,292.4,52.7z"/>
</g>
</svg>
