<?xml version="1.0" encoding="utf-8"?>
<!-- Generator: Adobe Illustrator 19.2.1, SVG Export Plug-In . SVG Version: 6.00 Build 0)  -->
<svg version="1.1" id="Layer_1" xmlns="http://www.w3.org/2000/svg" xmlns:xlink="http://www.w3.org/1999/xlink" x="0px" y="0px"
	 viewBox="0 0 300 88.9" style="enable-background:new 0 0 300 88.9;" xml:space="preserve">
<style type="text/css">
	.st0{fill:#FFFFFF;}
</style>
<g>
	<path class="st0" d="M104.8,0.5h5.6L93.9,39.6h-1.3L75.9,0.5h5.6l11.7,27.4L104.8,0.5z"/>
	<path class="st0" d="M114.7,0.5h5.6v39h-5.6V0.5z"/>
	<path class="st0" d="M129.1,39.5v-39h9.8c3.9,0,7.1,1,9.4,2.9s3.5,4.6,3.5,7.9c0,2.3-0.6,4.2-1.7,5.9c-1.1,1.7-2.8,2.9-4.9,3.7
		c1.2,0.8,2.5,1.9,3.7,3.3s2.9,3.9,5,7.4c1.4,2.2,2.4,3.9,3.3,5l2.1,2.8h-6.6l-1.7-2.6c-0.1-0.1-0.2-0.3-0.3-0.5l-1.1-1.5l-1.7-2.8
		l-1.9-3c-1.2-1.6-2.2-2.9-3.2-3.8s-1.8-1.6-2.6-2s-2.1-0.6-3.9-0.6h-1.5v17L129.1,39.5L129.1,39.5z M136.3,5.2h-1.7v12.3h2.1
		c2.8,0,4.8-0.2,5.8-0.7c1.1-0.5,1.9-1.2,2.5-2.2s0.9-2.1,0.9-3.3s-0.3-2.3-1-3.3s-1.6-1.7-2.7-2.1C141,5.4,139.1,5.2,136.3,5.2z"/>
	<path class="st0" d="M188.8,0.5h5.6v22.1c0,3-0.2,5.3-0.7,6.8c-0.4,1.5-1,2.8-1.6,3.8s-1.4,1.9-2.4,2.7c-3.1,2.7-7.1,4-12.1,4
		c-5.1,0-9.1-1.3-12.2-4c-0.9-0.8-1.7-1.7-2.4-2.7c-0.6-1-1.2-2.3-1.6-3.7c-0.4-1.5-0.6-3.8-0.6-6.9V0.5h5.6v22.1
		c0,3.7,0.4,6.2,1.3,7.6c0.8,1.4,2.1,2.6,3.8,3.4c1.7,0.9,3.7,1.3,6.1,1.3c3.3,0,6-0.9,8.1-2.6c1.1-0.9,1.9-2,2.4-3.3
		s0.7-3.4,0.7-6.5L188.8,0.5L188.8,0.5z"/>
	<path class="st0" d="M211.8,23.1l-4.2-2.6c-2.7-1.6-4.6-3.2-5.7-4.8c-1.1-1.6-1.7-3.4-1.7-5.4c0-3.1,1.1-5.6,3.2-7.5
		c2.1-1.9,4.9-2.9,8.3-2.9c3.3,0,6.2,0.9,9,2.7v6.3c-2.8-2.7-5.8-4.1-9.1-4.1c-1.8,0-3.3,0.4-4.5,1.3c-1.2,0.8-1.8,1.9-1.8,3.2
		c0,1.2,0.4,2.3,1.3,3.3c0.9,1,2.3,2.1,4.2,3.2l4.3,2.5c4.8,2.8,7.1,6.5,7.1,10.8c0,3.1-1,5.7-3.1,7.6c-2.1,2-4.8,2.9-8.2,2.9
		c-3.8,0-7.4-1.2-10.5-3.5V29c3,3.8,6.5,5.7,10.5,5.7c1.7,0,3.2-0.5,4.4-1.5s1.7-2.2,1.7-3.7C216.9,27.5,215.2,25.3,211.8,23.1z"/>
	<path class="st0" d="M21.3,49.5V52H3v15.6h17.8v2.5H3v15.8h18.7v2.5H0v-39L21.3,49.5L21.3,49.5z"/>
	<path class="st0" d="M57.2,49.5L40.9,88.8H40L23.6,49.5h3.1l13.8,33l13.7-33H57.2z"/>
	<path class="st0" d="M78.6,49c5.8,0,10.6,1.9,14.7,5.8c4,3.9,6,8.6,6,14.2s-2,10.3-6,14.2c-4,3.9-8.9,5.8-14.7,5.8
		C72.8,88.9,68,87,64,83.1s-6-8.6-6-14.2s2-10.3,6-14.2C68,50.9,72.8,49,78.6,49z M78.7,86.1c4.9,0,8.9-1.7,12.3-5
		c3.3-3.3,5-7.4,5-12.2c0-4.8-1.7-8.9-5-12.2s-7.4-5-12.3-5s-9,1.7-12.4,5s-5.1,7.4-5.1,12.2s1.7,8.9,5.1,12.2
		C69.7,84.5,73.8,86.1,78.7,86.1z"/>
	<path class="st0" d="M109.6,49.5V86h19.3v2.5h-22.3v-39H109.6z"/>
	<path class="st0" d="M162.1,49.5h3v21.3c0,5.8-1.5,10.3-4.5,13.5s-7,4.7-11.8,4.7s-8.7-1.6-11.7-4.7s-4.5-7.4-4.5-12.8v-22h3v21.8
		c0,4.6,1.2,8.3,3.7,10.9s5.6,3.9,9.6,3.9c3.9,0,7.1-1.3,9.6-4c2.5-2.6,3.7-6.4,3.7-11.3V49.5H162.1z"/>
	<path class="st0" d="M201.3,49.5V52h-14.6v36.5h-3V52H169v-2.5H201.3z"/>
	<path class="st0" d="M209,49.5v39h-3v-39H209z"/>
	<path class="st0" d="M236.9,49c5.8,0,10.6,1.9,14.7,5.8c4,3.9,6,8.6,6,14.2s-2,10.3-6,14.2c-4,3.9-8.9,5.8-14.7,5.8
		c-5.7,0-10.6-1.9-14.6-5.8s-6-8.6-6-14.2s2-10.3,6-14.2C226.3,50.9,231.1,49,236.9,49z M237,86.1c4.9,0,8.9-1.7,12.3-5
		c3.3-3.3,5-7.4,5-12.2c0-4.8-1.7-8.9-5-12.2s-7.4-5-12.3-5c-4.9,0-9,1.7-12.4,5s-5.1,7.4-5.1,12.2s1.7,8.9,5.1,12.2
		C228,84.5,232.1,86.1,237,86.1z"/>
	<path class="st0" d="M300,49.5v39h-2.5l-29.6-34.1v34.1h-3v-39h2.6l29.5,34v-34H300z"/>
</g>
</svg>
