<?xml version="1.0" encoding="utf-8"?>
<!-- Generator: Adobe Illustrator 19.2.1, SVG Export Plug-In . SVG Version: 6.00 Build 0)  -->
<svg version="1.1" id="Layer_1" xmlns="http://www.w3.org/2000/svg" xmlns:xlink="http://www.w3.org/1999/xlink" x="0px" y="0px"
	 viewBox="0 0 730 59.7" style="enable-background:new 0 0 730 59.7;" xml:space="preserve">
<style type="text/css">
	.st0{fill:#FDF9F8;}
</style>
<path class="st0" d="M115.6,4.2c0.5,0.7,0.7,2.3,0.7,4.8v25.9c0,2.9,0.1,4.6,0.1,5.2c-0.1,0.6-0.2,0.9-0.7,1.4
	c-0.5,0.4-1.4,0.5-2.9,0.5h-0.5v2h13v-1.7c-2,0-2.4-0.2-3-0.6c-0.5-0.4-0.8-0.9-0.9-1.6c-0.1-0.7-0.1-2.4-0.1-5.2v-3.7l1.3-1
	l6.6,7.7c1.4,1.6,2.2,2.7,2.2,3.1c0,0.9-1.1,1.4-3.1,1.4V44h13v-1.7c-1,0-1.9-0.3-2.7-0.8c-0.8-0.5-2-1.6-3.4-3.2L126,27.6
	c2.2-1.7,3.7-3,4.7-3.9c3.2-2.8,5.6-4.3,7.6-4.3V18h-10v1.4c1,0,2.3,0.5,2.3,1.5c0,1.4-2.2,3.6-6.6,6.7l-2.7,1.9V0h-0.8
	c-0.6,0-1.9,0.8-3.6,1.1c-1.7,0.3-3.5,0.6-4.5,0.6v1.5C114.3,3.1,115.2,3.5,115.6,4.2z"/>
<path class="st0" d="M150.8,52c1.6-2,2.4-4.4,2.4-7c0-1.9-0.5-3.5-1.4-4.8c-0.9-1.4-2.2-2.1-3.7-2.1c-1,0-1.8,0.3-2.4,0.9
	c-0.6,0.6-0.9,1.4-0.9,2.4c0,0.9,0.3,1.6,1,2.2c0.6,0.6,1.4,0.8,2.4,0.8c0.3,0,0.6-0.1,0.9-0.2c0.4-0.1,0.7-0.2,0.8-0.2
	c0.9,0,1.3,0.7,1.3,2.1c0,1.6-0.6,3.3-1.8,4.9c-1.2,1.6-3.1,2.8-5.1,3.4v1.6C147.3,55.4,149.2,54,150.8,52z"/>
<path class="st0" d="M61.3,2.4V1h-12v1.4c3,0,4.7,1.4,4.7,4.2c0,0.9-0.3,3-1.2,6l-6.5,22.8L33.7,1H32L20.8,35.4l-7.7-25
	c-0.9-2.9-1.3-4.7-1.3-5.3c0-0.8,0.3-1.4,0.8-1.8c0.5-0.4,1.7-0.7,3.7-0.8V1h-16v1.4c2,0.1,2.6,0.3,3.3,0.8c0.7,0.5,1.2,1.2,1.6,2.2
	c0.4,1,1.1,3.1,2,6.1L17.5,45H19L30.4,9.7l13,35.3h1.4l9.4-32.3c1.3-4.4,2.3-7.2,3.1-8.3C58.3,3.2,59.3,2.5,61.3,2.4z"/>
<path class="st0" d="M254.7,7c0.9,0,1.7-0.3,2.3-1c0.6-0.7,0.9-1.4,0.9-2.4c0-0.9-0.3-1.7-0.9-2.3c-0.6-0.7-1.4-1-2.3-1
	c-0.9,0-1.7,0.3-2.3,1c-0.6,0.7-1,1.4-1,2.3c0,0.9,0.3,1.7,1,2.4C253.1,6.7,253.8,7,254.7,7z"/>
<path class="st0" d="M278.3,42.3c-2,0-2.6-0.2-3.2-0.5c-0.6-0.3-0.7-0.8-0.8-1.5c-0.1-0.7,0-2.5,0-5.5V24.4c1-1.8,2.4-3.2,3.8-4.1
	c1.4-0.9,2.8-1.4,4.3-1.4c1.3,0,2.4,0.3,3.3,1c0.9,0.7,1.3,1.4,1.5,2.3c0.2,0.9,0.2,2.3,0.2,4.4v8.3c0,2.9,0.1,4.6,0,5.2
	c-0.1,0.6-0.3,0.9-0.7,1.4c-0.5,0.4-1.4,0.5-2.9,0.5h-0.4v2h13v-1.7c-1,0-2.5-0.2-3.1-0.5c-0.6-0.3-0.8-0.8-0.9-1.5
	c-0.1-0.7,0-2.5,0-5.5v-8.1c0-2.4-0.3-4.2-0.7-5.5c-0.4-1.3-1.3-2.3-2.6-3.2c-1.3-0.9-3-1.3-5.1-1.3c-1.8,0-3.6,0.4-5.2,1.3
	c-1.7,0.9-3.3,2.3-4.8,4.1c-0.1-2.3-0.3-4.3-0.8-5.3h-0.9c-2.4,1-4.9,1.1-6.9,1.3v1.5c1,0,2.5,0.2,3,0.5c0.6,0.3,0.8,0.8,0.9,1.5
	c0.1,0.6,0.1,2.5,0.1,5.5v7.7c0,3.2,0,5-0.2,5.6c-0.1,0.6-0.4,1-0.9,1.3c-0.6,0.3-1.9,0.4-2.9,0.4V44h13V42.3z"/>
<path class="st0" d="M262.3,42h-0.9c-1.3,0-2.3,0-2.8-0.4c-0.5-0.4-1-0.8-1-1.6c-0.1-0.7-0.3-2.4-0.3-5.1V17h-0.4
	c-2.1,1-4.6,1.2-8.6,1.6V20h0.7c1.2,0,2,0.1,2.5,0.3c0.5,0.2,1,0.6,1.3,1.3c0.3,0.7,0.6,2.5,0.6,5.6v7.8c0,2.9-0.2,4.6-0.2,5.2
	c-0.1,0.6-0.4,0.9-0.9,1.4c-0.5,0.4-1.5,0.5-3,0.5h-0.9v2h14V42z"/>
<path class="st0" d="M104.3,42h-0.9c-1.4,0-2.3,0-2.8-0.4c-0.5-0.4-1-0.8-1-1.6c-0.1-0.7-0.2-2.4-0.2-5.1v-4.6
	c0-2.3,0.3-4.1,0.7-5.5c0.4-1.3,1.2-2.6,2.5-3.8c1.3-1.2,2.4-1.8,3.3-1.8c0.8,0,1.3,0.5,1.7,1.6c0.5,1.6,1.4,2.3,2.4,2.3
	c0.6,0,1.1-0.2,1.5-0.7c0.4-0.4,0.6-1,0.6-1.6c0-0.9-0.4-1.8-1.2-2.7c-0.8-0.9-1.9-1.3-3.3-1.3c-1.5,0-3.1,0.6-4.7,1.9
	c-1.6,1.3-2.8,2.8-3.5,4.7c-0.1-2.7-0.5-4.9-1.1-6.6c-3.2,1-5.9,1.6-7.9,1.9V20h0.9c1.3,0,2.3,0.3,2.8,0.7c0.5,0.4,1,1,1,1.7
	c0.1,0.7,0.2,2.5,0.2,5.3v7.3c0,3-0.2,4.8-0.3,5.4c-0.1,0.6-0.5,0.9-1,1.3C93.4,42,92.5,42,91.2,42h-0.9v2h14V42z"/>
<path class="st0" d="M72.4,16.9c-3.9,0-7.1,1.3-9.8,4c-2.7,2.7-4,6-4,9.9c0,4.3,1.3,7.7,4,10.2c2.7,2.5,5.9,3.8,9.7,3.8
	c3.8,0,7.1-1.2,9.8-3.7c2.7-2.5,4-5.9,4-10.3c0-3.9-1.3-7.2-4-9.9C79.5,18.2,76.3,16.9,72.4,16.9z M78.7,40.6
	c-1.5,1.8-3.6,2.8-6.3,2.8c-2.7,0-4.8-0.9-6.3-2.8c-1.5-1.8-2.2-5.1-2.2-9.7c0-4.6,0.7-7.8,2.2-9.7c1.5-1.9,3.6-2.9,6.3-2.9
	c2.8,0,4.9,1,6.4,2.9c1.5,1.9,2.2,5.2,2.2,9.7C80.9,35.6,80.2,38.8,78.7,40.6z"/>
<path class="st0" d="M213.9,41.3c-0.7-0.6-1.4-1.4-1.8-2.4l-2-4.7L195.8,0h-1.2l-12.5,29.9c-0.9,2.1-1.4,3.4-1.5,3.8
	c-1.3,3.3-2.3,5.6-3.2,6.6c-0.9,1-2.1,1.8-4.1,2V44h13v-1.7c-1,0-2.8-0.3-3.7-1c-0.9-0.7-1.5-1.6-1.5-2.9c0-1.2,0.8-3.8,2.4-7.7
	l1.1-2.7h16.3l3.3,7.9c1,2.3,1.5,3.7,1.5,4.1c0,0.9-0.4,1.5-1.1,1.8c-0.7,0.3-2.2,0.5-4.2,0.5V44h17v-1.7
	C215.3,42.2,214.7,41.8,213.9,41.3z M185.2,27l7.6-18.3l7.6,18.3H185.2z"/>
<path class="st0" d="M246.8,18c-0.6-0.5-1.3-0.8-2.4-0.8c-1.8,0-3.6,1-5.4,3c-2.1-2.2-4.9-3.3-8.5-3.3c-2.8,0-5.3,0.9-7.4,2.8
	c-2.1,1.8-3.1,4.1-3.1,6.7c0,1.9,0.5,3.6,1.5,5.1c1,1.5,2.5,2.9,4.5,4c-3.9,0.7-5.8,2.5-5.8,5.2c0,1.4,0.7,2.6,2,3.5
	c1.3,0.9,4.3,1.5,8.8,1.7c3.9,0.2,6.7,0.7,8.2,1.5c1.5,0.9,2.3,2.3,2.3,4.5c0,1.9-0.9,3.5-2.6,4.7c-1.7,1.2-4.1,1.8-7.2,1.8
	c-3.5,0-6.1-0.6-7.8-1.8c-1.7-1.2-2.6-2.7-2.6-4.6c0-1.6,0.7-3.1,2-4.5c-0.3-0.1-0.6-0.2-0.9-0.2c-1.2,0-2.2,0.4-2.9,1.2
	c-0.7,0.8-1,1.9-1,3.2c0,2.3,1.2,4.2,3.5,5.8c2.4,1.5,5.5,2.3,9.4,2.3c4.3,0,7.6-0.9,9.8-2.6c2.3-1.7,3.4-4,3.4-6.7
	c0-2-0.6-3.7-1.7-5.1c-1.1-1.4-2.6-2.4-4.5-2.9c-1.9-0.5-4.6-0.8-8-1c-3.2-0.2-5.3-0.4-6.3-0.8c-1-0.3-1.5-0.9-1.5-1.6
	c0-1.7,2.2-2.6,6.7-2.7c4.3-0.1,7.4-1.2,9.2-3.2c1.8-1.9,2.7-4.2,2.7-6.7c0-1.9-0.5-3.8-1.6-5.5c1-1.1,1.9-1.6,2.7-1.6
	c0.5,0,1,0.4,1.5,1.2c0.5,0.9,1.1,1.3,1.8,1.3c1.3,0,1.9-0.7,1.9-2.1C247.6,19.1,247.3,18.5,246.8,18z M234.8,33.1
	c-1.1,1.3-2.5,1.9-4.1,1.9c-1.7,0-3.1-0.6-4.3-1.9c-1.1-1.3-1.7-3.3-1.7-6c0-2.9,0.5-5.1,1.5-6.6c1-1.5,2.4-2.2,4.4-2.2
	c1.5,0,2.9,0.6,4.1,1.8c1.2,1.2,1.8,3.3,1.8,6.4C236.5,29.6,236,31.8,234.8,33.1z"/>
<path class="st0" d="M327.7,18c-0.6-0.5-1.3-0.8-2.4-0.8c-1.8,0-3.6,1-5.4,3c-2.1-2.2-5-3.3-8.5-3.3c-2.8,0-5.3,0.9-7.4,2.8
	c-2.1,1.8-3.1,4.1-3.1,6.7c0,1.9,0.5,3.6,1.5,5.1c1,1.5,2.5,2.9,4.5,4c-3.9,0.7-5.8,2.5-5.8,5.2c0,1.4,0.7,2.6,2,3.5
	c1.3,0.9,4.3,1.5,8.8,1.7c3.9,0.2,6.7,0.7,8.2,1.5c1.5,0.9,2.3,2.3,2.3,4.5c0,1.9-0.9,3.5-2.6,4.7c-1.7,1.2-4.1,1.8-7.2,1.8
	c-3.5,0-6.1-0.6-7.8-1.8c-1.7-1.2-2.6-2.7-2.6-4.6c0-1.6,0.7-3.1,2-4.5c-0.3-0.1-0.6-0.2-0.9-0.2c-1.2,0-2.2,0.4-2.9,1.2
	c-0.7,0.8-1,1.9-1,3.2c0,2.3,1.2,4.2,3.5,5.8c2.4,1.5,5.5,2.3,9.4,2.3c4.3,0,7.6-0.9,9.8-2.6c2.3-1.7,3.4-4,3.4-6.7
	c0-2-0.6-3.7-1.7-5.1c-1.1-1.4-2.6-2.4-4.5-2.9c-1.9-0.5-4.5-0.8-8-1c-3.2-0.2-5.3-0.4-6.3-0.8c-1-0.3-1.5-0.9-1.5-1.6
	c0-1.7,2.2-2.6,6.7-2.7c4.3-0.1,7.4-1.2,9.2-3.2c1.8-1.9,2.7-4.2,2.7-6.7c0-1.9-0.5-3.8-1.6-5.5c1-1.1,1.9-1.6,2.7-1.6
	c0.5,0,1,0.4,1.5,1.2c0.5,0.9,1.1,1.3,1.8,1.3c1.3,0,1.9-0.7,1.9-2.1C328.5,19.1,328.2,18.5,327.7,18z M315.7,33.1
	c-1.1,1.3-2.5,1.9-4.1,1.9c-1.7,0-3.1-0.6-4.3-1.9c-1.1-1.3-1.7-3.3-1.7-6c0-2.9,0.5-5.1,1.5-6.6c1-1.5,2.4-2.2,4.4-2.2
	c1.5,0,2.9,0.6,4.1,1.8c1.2,1.2,1.8,3.3,1.8,6.4C317.4,29.6,316.9,31.8,315.7,33.1z"/>
<g>
	<path class="st0" d="M389.3,41.6c-0.8,0.8-1.6,1.2-2.3,1.2c-0.4,0-0.7-0.1-0.9-0.3c-0.2-0.2-0.3-0.5-0.3-0.9c0-0.3,0.5-1.8,1.4-4.6
		l3.4-10.1c0.9-2.6,1.3-4.4,1.3-5.3c0-1.5-0.4-2.6-1.3-3.4c-0.9-0.8-1.9-1.2-3-1.2c-3.6,0-7.3,3.8-11.1,11.4
		c1.4-3.8,2.1-6.6,2.1-8.4c0-1-0.2-1.8-0.6-2.3c-0.4-0.5-1-0.9-1.9-0.9c-2.4,0-4.9,2-7.5,7h1.5c1.7-3,3.2-4.5,4.4-4.5
		c0.3,0,0.5,0.1,0.6,0.3c0.1,0.2,0.2,0.5,0.2,0.8c0,0.5-0.5,2.2-1.5,5.5L368.2,44h3.9l1.5-4.9c1.9-6.1,4.1-10.9,6.6-14.7
		c2.6-3.8,4.7-5.6,6.3-5.6c0.6,0,1.1,0.2,1.4,0.5c0.3,0.3,0.5,0.9,0.5,1.5c0,0.8-0.5,2.5-1.4,5.1l-3.4,9.6c-1,2.8-1.5,4.7-1.5,5.6
		c0,1.1,0.3,2,1,2.6c0.7,0.6,1.5,0.9,2.4,0.9c1.4,0,2.7-0.5,4-1.7c1.3-1.1,2.6-3.1,3.9-5.1h-1.6C391,40,390.1,40.8,389.3,41.6z"/>
	<path class="st0" d="M534.5,1.4c-0.6,0.7-1,1.4-1,2.3c0,0.9,0.3,1.7,1,2.4c0.6,0.7,1.4,1,2.3,1c0.9,0,1.7-0.3,2.3-1
		c0.6-0.7,0.9-1.4,0.9-2.4c0-0.9-0.3-1.7-0.9-2.3c-0.6-0.7-1.4-1-2.3-1C535.9,0.4,535.1,0.7,534.5,1.4z"/>
	<path class="st0" d="M540.6,41.6c-0.5-0.4-1-0.8-1.1-1.5c-0.1-0.7-0.3-2.4-0.3-5.1V17h-0.4c-2.1,1-5.6,1.2-8.6,1.6V20h0.7
		c1.2,0,2,0.1,2.5,0.3c0.5,0.2,1,0.6,1.2,1.3c0.3,0.7,0.5,2.5,0.5,5.6V35c0,2.9-0.1,4.6-0.2,5.2c-0.1,0.6-0.4,0.9-0.8,1.4
		c-0.5,0.4-1.5,0.5-3,0.5h-1v2h14v-2h-0.8C542.1,42,541.2,42,540.6,41.6z"/>
	<path class="st0" d="M564.3,16.9c-1.5,0-3.1,0.6-4.7,1.9c-1.6,1.3-2.8,2.8-3.5,4.7c-0.1-2.7-0.4-4.9-1-6.6c-3.2,1-5.8,1.6-7.8,1.9
		V20h0.7c1.3,0,2.3,0.3,2.8,0.7c0.5,0.4,0.6,1,0.6,1.7c0.1,0.7-0.2,2.5-0.2,5.3V35c0,3,0.2,4.8,0.1,5.4c-0.1,0.6-0.3,0.9-0.8,1.3
		C550,42,549.3,42,548,42h-0.7v2h14v-2h-1.1c-1.4,0-2.3,0-2.8-0.4c-0.5-0.4-0.9-0.8-0.9-1.5c-0.1-0.7-0.1-2.4-0.1-5.1v-4.6
		c0-2.3,0.2-4.1,0.6-5.5c0.4-1.3,1.2-2.6,2.4-3.8c1.3-1.2,2.4-1.8,3.3-1.8c0.8,0,1.3,0.5,1.7,1.6c0.5,1.6,1.3,2.3,2.4,2.3
		c0.6,0,1.1-0.2,1.5-0.7c0.4-0.4,0.6-1,0.6-1.6c0-0.9-0.4-1.8-1.2-2.7C566.8,17.4,565.7,16.9,564.3,16.9z"/>
	<path class="st0" d="M643.2,40.5c-0.1-0.7,0.1-2.5,0.1-5.5v-7.8c0-2.6-0.4-4.5-0.7-5.7c-0.3-1.2-1.3-2.2-2.6-3.2
		c-1.4-0.9-3.1-1.4-5.1-1.4c-1.7,0-3.5,0.5-5.2,1.5c-1.7,1-3.3,2.4-4.9,4.4c-0.5-1.9-1.5-3.4-2.8-4.4c-1.3-1-3.1-1.5-5.2-1.5
		c-1.9,0-3.6,0.5-5.3,1.4c-1.6,0.9-3.2,2.3-4.6,4.1c0-2.2-0.3-4.4-0.9-5.4h-0.3c-2,1-4.4,1.1-7.4,1.3v1.5c2,0,2.4,0.2,3,0.5
		c0.6,0.3,0.8,0.8,0.9,1.5c0.1,0.7,0.1,2.5,0.1,5.4V35c0,3.1,0,5-0.1,5.6c-0.1,0.6-0.4,1.1-1,1.4c-0.6,0.3-0.9,0.5-2.9,0.5V44h13
		v-1.6c-2,0-2.6-0.2-3.1-0.5c-0.5-0.4-0.8-0.9-0.9-1.6c-0.1-0.7,0-2.5,0-5.3V24.2c1-1.7,2.6-2.9,4-3.8c1.4-0.8,2.6-1.3,3.9-1.3
		c1.3,0,2.4,0.4,3.3,1.1c0.9,0.7,1.4,1.6,1.6,2.6c0.2,1,0.2,2.7,0.2,4.9V35c0,3.1,0,5-0.2,5.6c-0.1,0.6-0.4,1.1-1,1.4
		c-0.6,0.3-0.9,0.4-2.9,0.4V44h13v-1.6c-2,0-2.6-0.2-3.1-0.6c-0.5-0.4-0.8-0.9-0.8-1.6c-0.1-0.7-0.1-2.4-0.1-5.2V24.8
		c1-1.9,2.6-3.3,3.9-4.2c1.4-0.9,2.7-1.4,4-1.4c1.3,0,2.4,0.3,3.2,0.9c0.8,0.6,1.3,1.4,1.5,2.3c0.2,0.9,0.3,2.2,0.3,4V35
		c0,3.1-0.1,5-0.2,5.6c-0.1,0.6-0.4,1.1-1,1.4c-0.6,0.3-0.8,0.5-2.8,0.5V44h13v-1.6c-1,0-2.5-0.2-3.1-0.5
		C643.7,41.6,643.4,41.1,643.2,40.5z"/>
	<path class="st0" d="M729,40.1c-1.1,1.7-2.4,2.6-4,2.6c-0.8,0-1.5-0.3-2.2-0.8c-0.7-0.5-1.1-1.2-1.3-2c-0.2-0.8-0.3-2.4-0.3-4.8V19
		h8v-1h-8v-8h-1.1c-0.4,2-1.1,4.4-2.4,5.9c-1.4,1.4-3.4,2.1-4.4,2.1v1h3v15.1c0,3,0.3,5.1,0.6,6.3c0.3,1.2,1.1,2.2,2.2,3.1
		c1.1,0.9,2.5,1.3,4,1.3c1.3,0,2.6-0.4,3.9-1.1c1.3-0.7,2.3-1.8,2.9-3.1L729,40.1z"/>
	<path class="st0" d="M705.6,40.4c-0.1-0.7-0.3-2.5-0.3-5.5v-8.1c0-2.4,0-4.2-0.4-5.5c-0.4-1.3-1.1-2.3-2.5-3.2
		c-1.3-0.9-3-1.3-5-1.3c-1.8,0-3.5,0.4-5.2,1.3c-1.7,0.9-3.2,2.3-4.8,4c-0.1-2.3-0.3-4.3-0.8-5.3h-0.9c-2.4,1-5.5,1.1-7.5,1.3v1.5
		c2,0,2.7,0.2,3.3,0.5c0.6,0.3,0.7,0.8,0.8,1.5c0.1,0.6-0.1,2.5-0.1,5.5V35c0,3.2,0.3,5,0.1,5.6c-0.1,0.6-0.5,1.1-1.1,1.3
		c-0.6,0.3-2,0.4-3,0.4V44h13v-1.6c-1,0-2.3-0.2-2.9-0.5c-0.6-0.3-0.9-0.8-1-1.5c-0.1-0.7-0.1-2.5-0.1-5.5V24.4
		c1-1.8,2.7-3.2,4.1-4.1c1.4-0.9,2.9-1.4,4.5-1.4c1.3,0,2.5,0.3,3.4,1c0.9,0.7,1.5,1.4,1.7,2.3c0.2,0.9,0.4,2.3,0.4,4.4V35
		c0,2.9-0.1,4.6-0.2,5.2c-0.1,0.6-0.4,0.9-0.8,1.4c-0.5,0.4-1.5,0.5-3,0.5h-0.9v2h13v-1.6c-1,0-2.3-0.2-2.9-0.5
		C705.9,41.6,705.7,41.1,705.6,40.4z"/>
	<path class="st0" d="M524.1,42.6c-0.8,0-1.5-0.3-2.2-0.8c-0.7-0.5-1.1-1.2-1.3-2c-0.2-0.8-0.3-2.4-0.3-4.8V19h7v-1h-7v-8h-1
		c-0.4,2-1.6,4.4-3,5.9c-1.4,1.4-3,2.1-5,2.1v1h4v15.1c0,3,0.4,5.1,0.6,6.3c0.3,1.2,1.1,2.2,2.3,3.1c1.1,0.9,2.5,1.3,4.1,1.3
		c1.3,0,2.6-0.4,3.9-1.1c1.3-0.7,2.3-1.8,2.9-3.1l-1-0.6C526.9,41.8,525.6,42.6,524.1,42.6z"/>
	<path class="st0" d="M584.5,43.2c-2.8,0-5-1.1-6.4-3.4c-1.4-2.3-2.1-5.6-2.1-10.1c0-0.6,0-1.6,0.1-2.6h18.1c-0.1-3-1.1-4.8-2.9-6.8
		c-1.9-2.1-4.5-3.2-7.9-3.2c-3.6,0-6.6,1.3-9,4c-2.4,2.7-3.6,6.1-3.6,10.2c0,2.9,0.6,5.3,1.9,7.4c1.2,2,2.8,3.6,4.8,4.7
		c2,1.1,4,1.7,6.2,1.7c2.4,0,4.5-0.6,6.5-1.8c2-1.2,3.3-3.1,4-5.1h-1.5C591.1,42,588.3,43.2,584.5,43.2z M583.1,18.1
		c1.6,0,2.9,0.6,4,1.6c1.1,1,1.6,2.3,1.6,4.1c0,0.4,0,1.1-0.1,1.1h-12.4C577,21,579.3,18.1,583.1,18.1z"/>
	<path class="st0" d="M498.2,43.2c-2.8,0-5-1.1-6.4-3.4c-1.4-2.3-2.1-5.6-2.1-10.1c0-0.6,0-1.6,0.1-2.6h18.1c-0.1-3-1.1-4.8-2.9-6.8
		c-1.9-2.1-4.5-3.2-7.9-3.2c-3.6,0-6.6,1.3-9,4c-2.4,2.7-3.6,6.1-3.6,10.2c0,2.9,0.6,5.3,1.9,7.4c1.2,2,2.8,3.6,4.8,4.7
		c2,1.1,4,1.7,6.2,1.7c2.4,0,4.5-0.6,6.6-1.8c2-1.2,3.3-3.1,4-5.1h-1.5C504.7,42,502,43.2,498.2,43.2z M496.8,18.1
		c1.6,0,2.9,0.6,4,1.6c1.1,1,1.6,2.3,1.6,4.1c0,0.4,0,1.1-0.1,1.1h-12.4C490.6,21,492.9,18.1,496.8,18.1z"/>
	<path class="st0" d="M365.1,37c-1.9,4-3.6,5.1-5,5.1c-0.4,0-0.7,0-0.9-0.3c-0.2-0.2-0.3-0.5-0.3-0.9c0-0.6,0.4-2.5,1.3-5.1
		l5.9-18.8h-3.8l-0.8,3c-0.2-1.1-0.6-1.7-1.3-2.2c-0.7-0.5-1.5-0.7-2.6-0.7c-1.9,0-4.2,1.1-6.9,3.3c-2.7,2.2-4.9,4.9-6.5,8.2
		c-1.7,3.3-2.5,6.4-2.5,9.2c0,2.1,0.5,3.8,1.6,5.1c1.1,1.3,2.3,1.9,3.8,1.9c1.6,0,3.3-0.8,5.1-2.4c1.8-1.6,3.2-3.2,4.1-4.8
		c-0.4,1.4-0.6,2.5-0.6,3.4c0,1.1,0.3,2,0.8,2.7c0.5,0.7,1.3,1.1,2.3,1.1c1.3,0,2.7-0.9,4.2-2.4c1.5-1.5,2.7-3.3,3.5-5.3H365.1z
		 M358.3,30.5c-1.4,4.2-3.2,7.3-5.1,9.4c-2,2-3.7,3.1-5.1,3.1c-0.9,0-1.5-0.4-1.9-1.1c-0.4-0.7-0.6-1.8-0.6-3.1
		c0-3.2,1.4-7.3,4.2-12.4c2.8-5.1,5.5-7.6,8.1-7.6c0.9,0,1.5,0.3,2,0.9c0.5,0.6,0.7,1.4,0.7,2.3C360.4,23.4,359.7,26.3,358.3,30.5z"
		/>
	<path class="st0" d="M478.5,40.2c-1.9-1.3-4.5-4.2-7.8-8.6c-4-5.4-6.9-8.5-8.7-9.4c4-0.5,7-1.7,9.1-3.7c2.1-2,3.1-4.4,3.1-7.2
		c0-2.4-0.8-4.5-2.4-6.2c-1.6-1.7-3.7-3-6.2-3.7c-2.6-0.8-5.9-1.1-10-1.1c-2.4,0-5.4,0.1-9.5,0.3L440.3,1v1h0.2
		c2.2,0,3.6,0.4,4.2,0.8c0.7,0.4,1.1,1.2,1.3,2.2c0.2,1,0.3,3.3,0.3,6.7v21c0,3.6-0.1,5.9-0.3,6.8c-0.2,1-0.6,1.5-1.4,2
		c-0.7,0.5-2,0.5-3.8,0.5h-1.5v2h21v-2h-2.4c-1.9,0-3.2-0.1-3.9-0.6c-0.7-0.5-1.2-1.2-1.3-2.2c-0.2-1-0.3-3.1-0.3-6.5V23h1.9
		c1.2,0,2,0.3,2.6,0.7c0.5,0.4,1.5,1.5,3,3.3c1.5,1.8,2.9,3.7,4.2,5.7c4.2,6.1,7.3,9.3,9.4,11.3h12v-1.6
		C482.3,42.3,480.4,41.6,478.5,40.2z M457.3,21.5c-1.7,0.1-3,0.1-5,0.2V2.1c1-0.1,2-0.1,2.8-0.1c5.1,0,8.4,0.9,9.9,2.7
		c1.5,1.8,2.3,4.2,2.3,7.2c0,1.7-0.2,3.2-0.7,4.4c-0.4,1.2-1,2.1-1.8,2.9c-0.8,0.7-1.8,1.3-3.1,1.7C460.5,21.2,459,21.5,457.3,21.5z
		"/>
	<path class="st0" d="M664.7,43.2c-2.8,0-5-1.1-6.4-3.4c-1.4-2.3-2.1-5.6-2.1-10.1c0-0.6,0-1.6,0.1-2.6h18.1c-0.1-3-1.1-4.8-2.9-6.8
		c-1.9-2.1-4.5-3.2-7.9-3.2c-3.6,0-6.6,1.3-9,4c-2.4,2.7-3.6,6.1-3.6,10.2c0,2.9,0.6,5.3,1.9,7.4c1.2,2,2.8,3.6,4.8,4.7
		c2,1.1,4,1.7,6.2,1.7c2.4,0,4.5-0.6,6.5-1.8c2-1.2,3.3-3.1,4-5.1h-1.5C671.3,42,668.6,43.2,664.7,43.2z M663.3,18.1
		c1.6,0,2.9,0.6,4,1.6c1.1,1,1.6,2.3,1.6,4.1c0,0.4,0,1.1-0.1,1.1h-12.4C657.2,21,659.5,18.1,663.3,18.1z"/>
	<path class="st0" d="M416.4,41.4c-0.8,0.7-1.5,1.1-2.1,1.1c-0.4,0-0.7-0.1-0.9-0.4c-0.2-0.3-0.3-0.7-0.3-1.2c0-0.7,0.6-3.4,1.9-7.5
		L425.2,0h-0.8c-1.8,1-4.3,1.4-7.3,1.4L416.7,3h0.9c1.1,0,1.8,0,2.1,0.2c0.3,0.2,0.4,0.5,0.4,1c0,0.3-0.2,1.2-0.7,2.7l-3.9,12.7
		c-0.4-0.9-0.9-1.6-1.6-2c-0.7-0.4-1.5-0.7-2.4-0.7c-1.8,0-4,1-6.5,2.9c-2.5,1.9-4.6,4.6-6.3,8.2c-1.7,3.5-2.5,6.8-2.5,9.8
		c0,2.2,0.5,3.9,1.5,5c1,1.2,2.2,1.7,3.7,1.7c2.5,0,5.3-1.9,8.3-5.7c-0.1,0.5-0.2,1.1-0.2,1.7c0,1.3,0.3,2.3,0.9,3
		c0.6,0.7,1.4,1,2.5,1c1.2,0,2.5-0.7,4-2.1c1.4-1.3,2.6-2.7,3.6-4.7h-1.5C418,40,417.2,40.6,416.4,41.4z M412.3,30.3
		c-1.6,4.5-3.3,7.8-5.1,9.7c-1.9,2-3.5,3-4.9,3c-0.8,0-1.4-0.3-1.8-0.9c-0.4-0.6-0.6-1.5-0.6-2.7c0-2.7,0.9-6,2.7-10
		c1.8-4,3.4-6.8,4.9-8.4c1.5-1.6,2.9-2.4,4.3-2.4c0.9,0,1.6,0.3,2.1,0.9c0.5,0.6,0.8,1.3,0.8,2.1C414.6,22.9,413.8,25.8,412.3,30.3z
		"/>
</g>
</svg>
